<?xml version="1.0" encoding="utf-8"?>
<!-- Generator: Adobe Illustrator 26.0.3, SVG Export Plug-In . SVG Version: 6.00 Build 0)  -->
<svg version="1.0" id="katman_1" xmlns="http://www.w3.org/2000/svg" xmlns:xlink="http://www.w3.org/1999/xlink" x="0px" y="0px"
	 viewBox="0 0 800 600" style="enable-background:new 0 0 800 600;" xml:space="preserve">
<style type="text/css">
	.st0{fill:#FFFFFF;}
	.st1{fill:#6A6667;}
	.st2{clip-path:url(#SVGID_00000138561538157983831330000012667558577837233853_);}
	.st3{fill:url(#path46_00000150821828954771850120000009157123014667810716_);}
	.st4{clip-path:url(#SVGID_00000008109446735226228710000017067934349293606275_);}
	.st5{fill:url(#path64_00000171711561437061620340000009280500582917184185_);}
	.st6{clip-path:url(#SVGID_00000040558416485674094760000000409487243591718537_);}
	.st7{fill:url(#path82_00000181061507534817742650000006622599694170929565_);}
	.st8{clip-path:url(#SVGID_00000055691643801139413160000002821465202225581699_);}
	.st9{fill:url(#path100_00000142150777334829994800000006409540573993925762_);}
	.st10{clip-path:url(#SVGID_00000179611101970731494580000006240649961143545270_);}
	.st11{fill:url(#path118_00000053538255536875015780000010984871354874068913_);}
	.st12{clip-path:url(#SVGID_00000060747081951991517710000012224574585256897968_);}
	.st13{fill:url(#path142_00000116923196162370046420000016637071537215657919_);}
	.st14{clip-path:url(#SVGID_00000059305143541357718650000000046567013811672741_);}
	.st15{fill:url(#path160_00000158014047058542056920000006146516121122285992_);}
	.st16{clip-path:url(#SVGID_00000021104453027614312660000004946187092102354353_);}
	.st17{fill:url(#path178_00000155834444584090017900000005226868717720663434_);}
</style>
<path id="path14" class="st0" d="M234.6,250.9c0-91.3,74-165.3,165.3-165.3s165.3,74,165.3,165.3c0,91.3-74,165.3-165.3,165.3
	C308.6,416.2,234.6,342.2,234.6,250.9C234.6,250.9,234.6,250.9,234.6,250.9"/>
<path id="path16" class="st1" d="M205.4,479.2c0-2,1.6-3.6,3.6-3.7c2,0,3.7,1.6,3.7,3.7v25.3h37.1v-25.3c0-2,1.5-3.7,3.5-3.7
	c2,0,3.7,1.5,3.7,3.5c0,0.1,0,0.1,0,0.2V537c0,2-1.5,3.7-3.5,3.7c-2,0-3.7-1.5-3.7-3.5c0-0.1,0-0.1,0-0.2v-25.7h-37.1V537
	c0,2-1.6,3.7-3.7,3.7c-2,0-3.6-1.7-3.6-3.7V479.2"/>
<path id="path18" class="st1" d="M313.7,516.6L299,483.8l-14.8,32.9H313.7z M268.3,535.4l26.1-57c0.7-2,2.5-3.3,4.6-3.2h0.4
	c2,0,3.9,1.3,4.5,3.2l26.1,56.9c0.3,0.6,0.4,1.2,0.5,1.8c0,1.9-1.6,3.5-3.5,3.5c0,0,0,0,0,0c-1.6-0.1-3-1.1-3.6-2.7l-6.7-14.8h-35.2
	l-6.7,15c-0.5,1.5-1.9,2.5-3.5,2.5c-1.8,0-3.3-1.5-3.3-3.3c0,0,0,0,0,0C267.8,536.7,268,536,268.3,535.4"/>
<path id="path20" class="st1" d="M368.3,508.7c9.6,0,16.5-5,16.5-13.2v-0.2c0-7.9-6.1-12.7-16.4-12.7h-19.8v26.1H368.3z
	 M341.4,479.6c0-2,1.6-3.6,3.6-3.7h24c7.9,0,14.2,2.4,18.3,6.4c3.3,3.4,5.1,8,5,12.7v0.2c0,10.6-7.2,16.7-17.2,18.6l16,20.6
	c0.7,0.7,1.2,1.7,1.2,2.7c-0.1,2-1.7,3.5-3.7,3.6c-1.4,0-2.6-0.8-3.4-1.9l-18.1-23.5h-18.4V537c0,2-1.6,3.7-3.6,3.7
	c-2,0-3.7-1.6-3.7-3.6c0,0,0-0.1,0-0.1L341.4,479.6"/>
<path id="path22" class="st1" d="M433.6,533.7c9.7,0,15.8-4.3,15.8-11.5V522c0-7-5.9-11-17.1-11H412v22.7L433.6,533.7z M431,504.6
	c8.7,0,14.8-3.9,14.8-11.5v-0.2c0-6.3-5-10.5-14.2-10.5H412v22.1L431,504.6z M404.9,479.6c0-2,1.6-3.6,3.6-3.7h23.8
	c7.3,0,13.1,2.1,16.8,5.7c2.7,2.7,4.2,6.4,4.1,10.3v0.2c0,8.4-5.1,12.7-10.2,14.9c7.6,2.3,13.8,6.7,13.8,15.5v0.2
	c0,11-9.3,17.5-23.3,17.5h-25c-2,0-3.6-1.7-3.6-3.7V479.6"/>
<path id="path24" class="st1" d="M523.4,508.3v-0.2c0-14.6-10.6-26.5-25.3-26.5c-14.7,0-25.1,11.7-25.1,26.3v0.2
	c0,14.6,10.6,26.5,25.3,26.5C513,534.6,523.4,522.9,523.4,508.3L523.4,508.3z M465.4,508.3v-0.2c0-17.7,13.3-33.2,32.9-33.2
	c19.5,0,32.7,15.3,32.7,33v0.2c0,17.7-13.3,33.2-32.9,33.2S465.4,526,465.4,508.3"/>
<path id="path26" class="st1" d="M570.4,508.7c9.6,0,16.5-5,16.5-13.2v-0.2c0-7.9-6.1-12.7-16.4-12.7h-19.8v26.1H570.4z
	 M543.4,479.6c0-2,1.6-3.6,3.6-3.7h24c7.9,0,14.2,2.4,18.3,6.4c3.3,3.4,5.1,8,5,12.7v0.2c0,10.6-7.2,16.7-17.2,18.6l16,20.6
	c0.7,0.7,1.2,1.7,1.2,2.7c-0.1,2-1.7,3.5-3.7,3.6c-1.4,0-2.6-0.8-3.4-1.9l-18.1-23.5h-18.4V537c0,2-1.6,3.6-3.6,3.6
	c-2,0-3.6-1.6-3.6-3.6c0,0,0,0,0,0L543.4,479.6"/>
<g>
	<defs>
		<polygon id="SVGID_1_" points="393.9,388 317.7,354.5 313.4,402.4 397.3,429.1 		"/>
	</defs>
	<clipPath id="SVGID_00000176724668952578142690000010318541945206398112_">
		<use xlink:href="#SVGID_1_"  style="overflow:visible;"/>
	</clipPath>
	<g id="g30" style="clip-path:url(#SVGID_00000176724668952578142690000010318541945206398112_);">
		<g id="g32">
			
				<linearGradient id="path46_00000055671893635253577570000013304190926542380424_" gradientUnits="userSpaceOnUse" x1="306.0112" y1="-308.58" x2="317.3526" y2="-308.58" gradientTransform="matrix(7.3902 0 0 7.3902 -1948.0314 2672.2112)">
				<stop  offset="0" style="stop-color:#64B337"/>
				<stop  offset="0.282" style="stop-color:#64B337"/>
				<stop  offset="1" style="stop-color:#377D34"/>
			</linearGradient>
			<path id="path46" style="fill:url(#path46_00000055671893635253577570000013304190926542380424_);" d="M393.9,388l-76.2-33.6
				l-4.2,48l83.8,26.6L393.9,388"/>
		</g>
	</g>
</g>
<g>
	<defs>
		<path id="SVGID_00000183236207912538651210000005161495549045638319_" d="M332.6,202.5h42.8V239h-10.2v-15.6
			c0.1-6.2-4.9-11.3-11.1-11.4s-11.3,4.9-11.4,11.1c0,0.1,0,0.1,0,0.2V239h-10.2L332.6,202.5z M324.1,282.5l63.5,28l-4.4-53.6h8.3
			V239h-6.2v-36.5h6.2V192l-34.2-33.5v-2.4c0-1.8-1.5-3.2-3.3-3.2c-1.7,0-3.1,1.4-3.2,3.2v2.4L316.5,192v10.5h6.2V239h-6.2v17.9h9.8
			L324.1,282.5z"/>
	</defs>
	<clipPath id="SVGID_00000130622044612442810150000004596500107116567720_">
		<use xlink:href="#SVGID_00000183236207912538651210000005161495549045638319_"  style="overflow:visible;"/>
	</clipPath>
	<g id="g48" style="clip-path:url(#SVGID_00000130622044612442810150000004596500107116567720_);">
		<g id="g50">
			
				<linearGradient id="path64_00000137825086866618286200000011906088932383555990_" gradientUnits="userSpaceOnUse" x1="310.1118" y1="-325.7507" x2="321.4534" y2="-325.7507" gradientTransform="matrix(6.6096 0 0 6.6096 -1733.1951 2384.7935)">
				<stop  offset="0" style="stop-color:#64B337"/>
				<stop  offset="0.282" style="stop-color:#64B337"/>
				<stop  offset="1" style="stop-color:#377D34"/>
			</linearGradient>
			<path id="path64" style="fill:url(#path64_00000137825086866618286200000011906088932383555990_);" d="M332.6,202.5h42.8V239
				h-10.2v-15.6c0.1-6.2-4.9-11.3-11.1-11.4s-11.3,4.9-11.4,11.1c0,0.1,0,0.1,0,0.2V239h-10.2L332.6,202.5z M324.1,282.5l63.5,28
				l-4.4-53.6h8.3V239h-6.2v-36.5h6.2V192l-34.2-33.5v-2.4c0-1.8-1.5-3.2-3.3-3.2c-1.7,0-3.1,1.4-3.2,3.2v2.4L316.5,192v10.5h6.2
				V239h-6.2v17.9h9.8L324.1,282.5"/>
		</g>
	</g>
</g>
<g>
	<defs>
		<polygon id="SVGID_00000165222250785179389310000007054165181529516731_" points="320.3,324.5 391.3,355.8 390.2,342.7 
			321.4,312.4 		"/>
	</defs>
	<clipPath id="SVGID_00000034789522693962178290000001572532586628385442_">
		<use xlink:href="#SVGID_00000165222250785179389310000007054165181529516731_"  style="overflow:visible;"/>
	</clipPath>
	<g id="g66" style="clip-path:url(#SVGID_00000034789522693962178290000001572532586628385442_);">
		<g id="g68">
			
				<linearGradient id="path82_00000077294424167564248060000001813163371927765429_" gradientUnits="userSpaceOnUse" x1="312.6717" y1="-309.4342" x2="324.0132" y2="-309.4342" gradientTransform="matrix(6.2537 0 0 6.2537 -1635.0306 2269.2136)">
				<stop  offset="0" style="stop-color:#64B337"/>
				<stop  offset="0.282" style="stop-color:#64B337"/>
				<stop  offset="1" style="stop-color:#377D34"/>
			</linearGradient>
			<path id="path82" style="fill:url(#path82_00000077294424167564248060000001813163371927765429_);" d="M320.3,324.5l70.9,31.3
				l-1.1-13l-68.8-30.3L320.3,324.5"/>
		</g>
	</g>
</g>
<g>
	<defs>
		<polygon id="SVGID_00000011732929004142992340000016747261878132887949_" points="318.5,345.5 393.1,378.4 392.1,365.4 
			319.5,333.4 		"/>
	</defs>
	<clipPath id="SVGID_00000157285191943823367920000006283154596579509935_">
		<use xlink:href="#SVGID_00000011732929004142992340000016747261878132887949_"  style="overflow:visible;"/>
	</clipPath>
	<g id="g84" style="clip-path:url(#SVGID_00000157285191943823367920000006283154596579509935_);">
		<g id="g86">
			
				<linearGradient id="path100_00000066482817753494220990000017938921687033652394_" gradientUnits="userSpaceOnUse" x1="310.535" y1="-308.4336" x2="321.8763" y2="-308.4336" gradientTransform="matrix(6.581 0 0 6.581 -1725.1632 2385.7358)">
				<stop  offset="0" style="stop-color:#64B337"/>
				<stop  offset="0.282" style="stop-color:#64B337"/>
				<stop  offset="1" style="stop-color:#377D34"/>
			</linearGradient>
			<path id="path100" style="fill:url(#path100_00000066482817753494220990000017938921687033652394_);" d="M318.5,345.5l74.6,32.9
				l-1.1-13l-72.5-32L318.5,345.5"/>
		</g>
	</g>
</g>
<g>
	<defs>
		<polygon id="SVGID_00000036237371526855918140000005345264712087890853_" points="323.3,291.4 322.2,303.5 389.4,333.1 
			388.3,320.1 		"/>
	</defs>
	<clipPath id="SVGID_00000144300550813403498190000010844793033036856714_">
		<use xlink:href="#SVGID_00000036237371526855918140000005345264712087890853_"  style="overflow:visible;"/>
	</clipPath>
	<g id="g102" style="clip-path:url(#SVGID_00000144300550813403498190000010844793033036856714_);">
		<g id="g104">
			
				<linearGradient id="path118_00000000197838274004270790000015969271227788739767_" gradientUnits="userSpaceOnUse" x1="315.0443" y1="-310.5454" x2="326.3858" y2="-310.5454" gradientTransform="matrix(5.9264 0 0 5.9264 -1544.8984 2152.6904)">
				<stop  offset="0" style="stop-color:#64B337"/>
				<stop  offset="0.282" style="stop-color:#64B337"/>
				<stop  offset="1" style="stop-color:#377D34"/>
			</linearGradient>
			<path id="path118" style="fill:url(#path118_00000000197838274004270790000015969271227788739767_);" d="M323.3,291.4l-1.1,12.1
				l67.2,29.6l-1.1-13L323.3,291.4"/>
		</g>
	</g>
</g>
<path id="path120" class="st1" d="M537.9,175.3l34.3-11c-0.1-0.2-0.2-0.5-0.4-0.7c-5.8-11.3-12.7-22-20.6-32L519,148.2
	c7.1,8.2,13.3,17.1,18.6,26.5C537.7,174.9,537.8,175.1,537.9,175.3"/>
<path id="path122" class="st1" d="M556.8,240.2l35.8,2.6c-0.4-9.5-1.5-19-3.3-28.4l-36.1,1.2C555.1,223.7,556.3,231.9,556.8,240.2"
	/>
<path id="path124" class="st1" d="M402.4,408.3c-86.8,0-157.5-70.6-157.5-157.5c0-86.8,70.6-157.5,157.5-157.5
	c30,0,59.4,8.6,84.7,24.8l25-26c-32.2-22.4-70.5-34.4-109.7-34.3c-106.4,0-193,86.6-193,193c0,106.4,86.6,193,193,193
	c90.9,0,167.3-63.2,187.6-148l-33.8-11.7C540.9,355.1,477.8,408.3,402.4,408.3"/>
<g>
	<defs>
		<path id="SVGID_00000183241824270581431790000003512859125541749388_" d="M547.9,127.2c-9.8-11.7-20.8-22.1-33-31.2
			c-1.8-1.3-3.5-2.6-5.3-3.8l-25,26l-91.4,95.1L519,148.2l32.3-16.7C550.1,130.1,549.1,128.6,547.9,127.2z"/>
	</defs>
	<clipPath id="SVGID_00000152236863084518151860000011043538529724695208_">
		<use xlink:href="#SVGID_00000183241824270581431790000003512859125541749388_"  style="overflow:visible;"/>
	</clipPath>
	<g id="g126" style="clip-path:url(#SVGID_00000152236863084518151860000011043538529724695208_);">
		<g id="g128">
			
				<linearGradient id="path142_00000057134390951785015370000005926462310846499499_" gradientUnits="userSpaceOnUse" x1="284.7581" y1="-331.6766" x2="296.0989" y2="-331.6766" gradientTransform="matrix(12.899 -9.5528 9.5528 12.899 -110.4112 7211.2178)">
				<stop  offset="0" style="stop-color:#4795D1"/>
				<stop  offset="0.2" style="stop-color:#4795D1"/>
				<stop  offset="1" style="stop-color:#FFFFFF"/>
			</linearGradient>
			<path id="path142" style="fill:url(#path142_00000057134390951785015370000005926462310846499499_);" d="M547.9,127.2
				c-9.8-11.7-20.8-22.1-33-31.2c-1.8-1.3-3.5-2.6-5.3-3.8l-25,26l-91.4,95.1L519,148.2l32.3-16.7
				C550.1,130.1,549.1,128.6,547.9,127.2"/>
		</g>
	</g>
</g>
<g>
	<defs>
		<path id="SVGID_00000132063628247819084060000014629110620161596596_" d="M592.8,249.4c0-2.2-0.2-4.4-0.2-6.6l-35.8-2.6
			l-163.7-11.8l160.6,55.7l33.8,11.7c0.1-0.4,0.2-0.8,0.3-1.2c3.4-14.4,5.1-29.1,5.1-43.8C592.9,250.4,592.8,249.9,592.8,249.4
			L592.8,249.4z"/>
	</defs>
	<clipPath id="SVGID_00000178899108839173566540000009516297135728127670_">
		<use xlink:href="#SVGID_00000132063628247819084060000014629110620161596596_"  style="overflow:visible;"/>
	</clipPath>
	<g id="g144" style="clip-path:url(#SVGID_00000178899108839173566540000009516297135728127670_);">
		<g id="g146">
			
				<linearGradient id="path160_00000018920419786294186480000000369558084140735648_" gradientUnits="userSpaceOnUse" x1="292.2399" y1="-345.1351" x2="303.5854" y2="-345.1351" gradientTransform="matrix(18.512 3.7781 -3.7781 18.512 -6321.3564 5514.0669)">
				<stop  offset="0" style="stop-color:#4393D0"/>
				<stop  offset="0.2" style="stop-color:#4393D0"/>
				<stop  offset="1" style="stop-color:#FFFFFF"/>
			</linearGradient>
			<path id="path160" style="fill:url(#path160_00000018920419786294186480000000369558084140735648_);" d="M592.8,249.4
				c0-2.2-0.2-4.4-0.2-6.6l-35.8-2.6l-163.7-11.8l160.6,55.7l33.8,11.7c0.1-0.4,0.2-0.8,0.3-1.2c3.4-14.4,5.1-29.1,5.1-43.8
				C592.9,250.4,592.8,249.9,592.8,249.4"/>
		</g>
	</g>
</g>
<g>
	<defs>
		<path id="SVGID_00000114069643224167254590000015743445783668310936_" d="M587.6,206.1c-3.5-14.5-8.6-28.5-15.4-41.9l-34.3,11
			L395.6,221l157.6-5.4l36.1-1.2C588.8,211.6,588.2,208.8,587.6,206.1L587.6,206.1z"/>
	</defs>
	<clipPath id="SVGID_00000178884090317716656750000017401206048290521475_">
		<use xlink:href="#SVGID_00000114069643224167254590000015743445783668310936_"  style="overflow:visible;"/>
	</clipPath>
	<g id="g162" style="clip-path:url(#SVGID_00000178884090317716656750000017401206048290521475_);">
		<g id="g164">
			
				<linearGradient id="path178_00000052784178209127803830000012121586938306184615_" gradientUnits="userSpaceOnUse" x1="290.6758" y1="-338.3268" x2="302.0168" y2="-338.3268" gradientTransform="matrix(17.0548 -3.0763 3.0763 17.0548 -3520.2698 6886.8677)">
				<stop  offset="0" style="stop-color:#4393D0"/>
				<stop  offset="0.333" style="stop-color:#4695D1"/>
				<stop  offset="1" style="stop-color:#FFFFFF"/>
			</linearGradient>
			<path id="path178" style="fill:url(#path178_00000052784178209127803830000012121586938306184615_);" d="M587.6,206.1
				c-3.5-14.5-8.6-28.5-15.4-41.9l-34.3,11L395.6,221l157.6-5.4l36.1-1.2C588.8,211.6,588.2,208.8,587.6,206.1"/>
		</g>
	</g>
</g>
</svg>
