<svg xmlns="http://www.w3.org/2000/svg" viewBox="0 0 5333.333 3282.053"><path d="M0 0h40000v24615.4H0Z" style="fill:#fff;fill-opacity:1;fill-rule:nonzero;stroke:none" transform="matrix(.13333 0 0 -.13333 0 3282.053)"/><path d="M40000 0H0v2812.9h40000V0" style="fill:#e1e2e2;fill-opacity:1;fill-rule:nonzero;stroke:none" transform="matrix(.13333 0 0 -.13333 0 3282.053)"/><path d="M19281.7 6121.8H18913v1474.8h368.7V6121.8" style="fill:#bbbab8;fill-opacity:1;fill-rule:nonzero;stroke:none" transform="matrix(.13333 0 0 -.13333 0 3282.053)"/><path d="M20592.4 6669h-2990c-12.6 0-23 10.3-23 23v2020.6c0 12.6 10.4 22.9 23 22.9h2990c12.6 0 22.9-10.3 22.9-22.9V6692c0-12.7-10.3-23-22.9-23" style="fill:#d8d7d5;fill-opacity:1;fill-rule:nonzero;stroke:none" transform="matrix(.13333 0 0 -.13333 0 3282.053)"/><path d="M20582.6 6787.8h-2970.4v1919.1h2970.4V6787.8" style="fill:#251f2a;fill-opacity:1;fill-rule:nonzero;stroke:none" transform="matrix(.13333 0 0 -.13333 0 3282.053)"/><path d="M19781 6050.1h-1367.3v21.4c0 27.8 22.5 50.3 50.2 50.3h1266.9c27.8 0 50.2-22.5 50.2-50.3v-21.4" style="fill:#d8d7d5;fill-opacity:1;fill-rule:nonzero;stroke:none" transform="matrix(.13333 0 0 -.13333 0 3282.053)"/><path d="M18288.8 8515.2h-454.9c-17.1 0-31.1 13.9-31.1 31 0 17 14 31 31.1 31h454.9c17 0 31-14 31-31 0-17.1-14-31-31-31" style="fill:#f57821;fill-opacity:1;fill-rule:nonzero;stroke:none" transform="matrix(.13333 0 0 -.13333 0 3282.053)"/><path d="M18288.8 8407.4h-454.9c-17.1 0-31.1 14-31.1 31 0 17.1 14 31.1 31.1 31.1h454.9c17 0 31-14 31-31.1 0-17-14-31-31-31" style="fill:#fbf5c2;fill-opacity:1;fill-rule:nonzero;stroke:none" transform="matrix(.13333 0 0 -.13333 0 3282.053)"/><path d="M18071.7 8299.7h-237.8c-17.1 0-31.1 13.9-31.1 31s14 31 31.1 31h237.8c17 0 31-13.9 31-31s-14-31-31-31" style="fill:#243f62;fill-opacity:1;fill-rule:nonzero;stroke:none" transform="matrix(.13333 0 0 -.13333 0 3282.053)"/><path d="M18652.8 8299.7h-465.6c-17.1 0-31.1 13.9-31.1 31s14 31 31.1 31h465.6c17.1 0 31-13.9 31-31s-13.9-31-31-31" style="fill:#bb2723;fill-opacity:1;fill-rule:nonzero;stroke:none" transform="matrix(.13333 0 0 -.13333 0 3282.053)"/><path d="M18868.3 8407.4h-454.9c-17.1 0-31 14-31 31 0 17.1 13.9 31.1 31 31.1h454.9c17.1 0 31-14 31-31.1 0-17-13.9-31-31-31" style="fill:#243f62;fill-opacity:1;fill-rule:nonzero;stroke:none" transform="matrix(.13333 0 0 -.13333 0 3282.053)"/><path d="M18499.6 7185.3h-454.9c-17.1 0-31.1 13.9-31.1 31 0 17 14 31 31.1 31h454.9c17 0 31-14 31-31 0-17.1-14-31-31-31" style="fill:#fbf5c2;fill-opacity:1;fill-rule:nonzero;stroke:none" transform="matrix(.13333 0 0 -.13333 0 3282.053)"/><path d="M18499.6 7077.5h-454.9c-17.1 0-31.1 14-31.1 31 0 17.1 14 31 31.1 31h454.9c17 0 31-13.9 31-31 0-17-14-31-31-31m-217.1-107.7h-237.8c-17.1 0-31.1 13.9-31.1 31 0 17 14 31 31.1 31h237.8c17 0 31-14 31-31 0-17.1-14-31-31-31" style="fill:#243f62;fill-opacity:1;fill-rule:nonzero;stroke:none" transform="matrix(.13333 0 0 -.13333 0 3282.053)"/><path d="M18863.6 6969.8H18398c-17.1 0-31 13.9-31 31 0 17 13.9 31 31 31h465.6c17.1 0 31.1-14 31.1-31 0-17.1-14-31-31.1-31" style="fill:#fbf5c2;fill-opacity:1;fill-rule:nonzero;stroke:none" transform="matrix(.13333 0 0 -.13333 0 3282.053)"/><path d="M19079.1 7077.5h-454.9c-17.1 0-31 14-31 31 0 17.1 13.9 31 31 31h454.9c17.1 0 31-13.9 31-31 0-17-13.9-31-31-31" style="fill:#f57821;fill-opacity:1;fill-rule:nonzero;stroke:none" transform="matrix(.13333 0 0 -.13333 0 3282.053)"/><path d="M18483 7815.7h-454.9c-17 0-31 14-31 31 0 17.1 14 31 31 31h454.9c17.1 0 31.1-13.9 31.1-31 0-17-14-31-31.1-31" style="fill:#fbf5c2;fill-opacity:1;fill-rule:nonzero;stroke:none" transform="matrix(.13333 0 0 -.13333 0 3282.053)"/><path d="M18483 7708h-454.9c-17 0-31 13.9-31 31 0 17 14 31 31 31h454.9c17.1 0 31.1-14 31.1-31 0-17.1-14-31-31.1-31" style="fill:#f57821;fill-opacity:1;fill-rule:nonzero;stroke:none" transform="matrix(.13333 0 0 -.13333 0 3282.053)"/><path d="M19062.6 7708h-454.9c-17.1 0-31.1 13.9-31.1 31 0 17 14 31 31.1 31h454.9c17 0 31-14 31-31 0-17.1-14-31-31-31m-579.6 443.5h-454.9c-17 0-31 14-31 31 0 17.1 14 31 31 31h454.9c17.1 0 31.1-13.9 31.1-31 0-17-14-31-31.1-31" style="fill:#fbf5c2;fill-opacity:1;fill-rule:nonzero;stroke:none" transform="matrix(.13333 0 0 -.13333 0 3282.053)"/><path d="M19113.2 7935h-726.4c-17.1 0-31 13.9-31 31s13.9 31 31 31h726.4c17.1 0 31-13.9 31-31s-13.9-31-31-31m-847.3 108.8h-237.8c-17 0-31 13.9-31 31 0 17 14 31 31 31h237.8c17.1 0 31-14 31-31 0-17.1-13.9-31-31-31" style="fill:#243f62;fill-opacity:1;fill-rule:nonzero;stroke:none" transform="matrix(.13333 0 0 -.13333 0 3282.053)"/><path d="M18265.9 7935h-237.8c-17 0-31 13.9-31 31s14 31 31 31h237.8c17.1 0 31-13.9 31-31s-13.9-31-31-31" style="fill:#bb2723;fill-opacity:1;fill-rule:nonzero;stroke:none" transform="matrix(.13333 0 0 -.13333 0 3282.053)"/><path d="M18279.1 7428.8h-454.9c-17.1 0-31 13.9-31 31s13.9 31 31 31h454.9c17.1 0 31-13.9 31-31s-13.9-31-31-31m210.8-107.8H18035c-17.1 0-31 14-31 31.1 0 17 13.9 31 31 31h454.9c17.1 0 31.1-14 31.1-31 0-17.1-14-31.1-31.1-31.1" style="fill:#f57821;fill-opacity:1;fill-rule:nonzero;stroke:none" transform="matrix(.13333 0 0 -.13333 0 3282.053)"/><path d="M19069.5 7321h-455c-17 0-31 14-31 31.1 0 17 14 31 31 31h455c17 0 31-14 31-31 0-17.1-14-31.1-31-31.1m-160.2 227.1h-726.4c-17.1 0-31 13.9-31 31 0 17 13.9 31 31 31h726.4c17 0 31-14 31-31 0-17.1-14-31-31-31" style="fill:#bb2723;fill-opacity:1;fill-rule:nonzero;stroke:none" transform="matrix(.13333 0 0 -.13333 0 3282.053)"/><path d="M18062 7548.1h-237.8c-17.1 0-31 13.9-31 31 0 17 13.9 31 31 31h237.8c17.1 0 31-14 31-31 0-17.1-13.9-31-31-31m1151.9 495.7h-237.8c-17 0-31 13.9-31 31 0 17 14 31 31 31h237.8c17.1 0 31.1-14 31.1-31 0-17.1-14-31-31.1-31" style="fill:#fbf5c2;fill-opacity:1;fill-rule:nonzero;stroke:none" transform="matrix(.13333 0 0 -.13333 0 3282.053)"/><path d="M18847.1 8043.8h-465.7c-17 0-31 13.9-31 31 0 17 14 31 31 31h465.7c17.1 0 31-14 31-31 0-17.1-13.9-31-31-31m-43 107.7h-196.4c-17.1 0-31.1 14-31.1 31 0 17.1 14 31 31.1 31h196.4c17.1 0 31-13.9 31-31 0-17-13.9-31-31-31" style="fill:#f57821;fill-opacity:1;fill-rule:nonzero;stroke:none" transform="matrix(.13333 0 0 -.13333 0 3282.053)"/><path d="M5799.44 4420c-14.56-63.1-94.85-98.4-179.27-79-84.42 19.5-141.11 86.5-126.55 149.6 14.56 63 94.86 98.4 179.27 78.9 84.49-19.4 141.11-86.4 126.55-149.5M4550.8 4134.9c-150.3-61.5-291.17-65-314.61-7.8-23.44 57.3 79.43 153.7 229.73 215.2 150.29 61.6 291.17 65 314.6 7.8 23.45-57.3-79.34-153.6-229.72-215.2m1122.87 2392.5c30.45 74.6 83.87 123.2 119.38 108.7 35.44-14.4 39.48-86.6 9.04-161.2-30.45-74.6-83.95-123.3-119.38-108.8-35.44 14.5-39.5 86.7-9.04 161.3m-889.87-770c-3.35 38 58.95 74.6 139.24 81.7 80.22 7.2 148.04-17.9 151.39-55.9 3.42-38-58.88-74.6-139.17-81.7-80.29-7.2-148.04 17.8-151.46 55.9m90.02-712.8c-95-47.2-195.38-38.4-224.19 19.7-28.74 58 24.91 143.2 120 190.4 95.08 47.1 195.46 38.4 224.19-19.7 28.82-58-24.91-143.3-120-190.4m778.98-71.8c-19.24-36.8-87.69-38.8-152.87-4.6-65.18 34.1-102.33 91.5-83.09 128.3 19.23 36.7 87.69 38.8 152.86 4.6 65.11-34.2 102.33-91.7 83.1-128.3m739.41 151.9c-114.08-59.6-511.31-506.9-554.61-149-43.22 357.9 224.19 267.5 224.19 267.5 393.34-106.2 680.47 322.5 680.47 322.5 2.49 79.6-27.64 180.8-70.09 282-3.11 7.5-6.31 15.1-9.57 22.6-92.13 211.1-231.06 415.2-231.06 415.2-161.28-302.9-845.63-837.8-912.52-676.5-66.83 161.2 114.08 216.3 114.08 216.3 637.16 133.7 660.77 601.8 660.77 601.8-11.93 31.3-35.21 64.8-65.81 98.9-5.3 5.9-10.75 11.7-16.36 17.6-168.51 174.7-511.71 359.3-511.71 359.3-23.59-350-267.5-527-267.5-527-420.83-23.6-196.63 239.9-196.63 239.9 326.45 86.5 298.88 405.1 298.88 405.1-22.89 0-55.06 12.5-91.97 32.5-6.31 3.4-12.85 7.1-19.46 11.1-146.25 85.4-348.73 267.1-348.73 267.1-15.49-139.4-175.77-187.2-180.74-188.6 43.22 24 62.76 235.8 62.76 235.8-12.3 5.3-27.17 14.2-43.92 25.9-5.91 4.2-12.14 8.7-18.53 13.5-102.48 77.5-256.45 234.9-325.98 307.6-22.66 23.8-36.37 38.5-36.37 38.5 1.79-5.8 2.65-12.5 2.65-20.1 0-12.2-2.26-26.6-6.47-42.8-25.46-100.1-122.26-266.3-198.19-387-4.43-7.1-8.87-14.1-13.24-20.9-47.34-74.5-83.64-127-83.64-127 121.96-306.8 641.07-208.5 420.84-474.7-220.23-266.1-534.91 301.6-534.91 301.6 6.06-35.1-29.68-105.3-82-185.7-4.52-6.9-9.12-13.9-13.87-20.9-38.4-57.1-83.88-118.2-127.8-174.7-4.82-6.2-9.73-12.5-14.48-18.6-86.36-109.8-162.99-197.9-162.99-197.9s39.34-326.5 503.38-436.6c464.13-110.1 397.31-200.6 397.31-200.6-456.27-196.6-936.12 511.3-936.12 511.3-94.93-103-171.4-238.7-231.45-374.8-3.34-7.6-6.61-15.1-9.8-22.7-116.97-273.3-167.75-540.8-167.75-540.8 436.56-599.9 680.39-292.8 892.75-292.8 212.44 0 318.59-62.9 318.59-121.8 0-59.1-51.09-255.7-464.06-255.7s-782.71 420.8-782.71 420.8c36.37-229.2 81.61-425 133.79-591.4 2.65-8.4 5.29-16.7 7.94-24.9 497.85-1539.5 1603.59-491.5 1746.56-347.4 10.06 10.2 15.35 15.8 15.35 15.8s1.16-13.3 6.93-34.4c4.05-14.9 10.44-33.4 20.4-53.8v-.1c24.14-49.9 69.38-110.3 153.57-151.6 409.92-200.8 1388.41 70.8 1345.12 555.4-7.95 88.9-5.52 174.9 3.66 256 .94 8.3 1.94 16.6 3.04 24.8 45.86 348.3 213.53 601.1 213.53 601.1s-381.51-147.2-495.52-206.7" style="fill:#4e9a35;fill-opacity:1;fill-rule:nonzero;stroke:none" transform="matrix(.13333 0 0 -.13333 0 3282.053)"/><path d="M3920.8 4423c-217.51 0-410.56 22.3-541.23 42.6-2.65 8.2-5.29 16.5-7.94 24.9 129.66-20.6 326.55-44.1 549.3-44.1 7.36 0 14.72 0 22.14.1 117.7.8 249.93 8.6 386.88 29.3 3.92-7.5 8.11-14.9 12.45-22.3-125.67-19.2-259.32-29.4-399.72-30.4-7.32-.1-14.64-.1-21.88-.1m2639.22 256.8c-4.75 7.1-8.94 14.2-12.64 21.2 41.26 8.6 83.51 18.4 126.82 29.3-1.1-8.2-2.1-16.5-3.04-24.8-37.84-9.5-74.87-18-111.14-25.7m-1881.19 691.9c-9.29 7-20.3 15-32.64 23.7 97.43.2 199.76 9.2 306.71 29.4 11.66-.8 23.47-1.3 35.5-1.3 13.76 0 27.73.6 41.98 1.8 0 0 10.45 1.6 26.53 1.6 3.59 0 7.48-.1 11.59-.3-130.67-33.5-260.87-51.9-389.67-54.9m-372.06 34.7c-175.63 37.5-347.07 104.7-510.96 200.4-148.35 86.8-267.89 184.1-354.79 265.4 3.19 7.6 6.46 15.1 9.8 22.7 86.37-81.3 207-180.4 357.61-268.3 130.96-76.5 297.08-151.2 492.91-194.1 1.84-8.5 3.66-17.2 5.43-26.1m961 683.4c-52.17.9-92.9 5.1-118.36 8.6-1.86 8-3.8 16.1-5.75 24.3 19.32-2.9 52.54-6.9 96.43-8.8 8.87-8.1 18.12-16.1 27.68-24.1m-167.41 13.6c-1.74.1-3.47.1-5.2.1-6.11 8-12.15 15.9-18.15 23.9 5.89-.2 11.81-.3 17.74-.5 1.95-7.8 3.82-15.6 5.61-23.5m-525.78 80.3c-222.96 66.5-391.78 163.6-510.03 250.4-75.22 55.2-136.2 110.5-183.86 159.4 4.75 6.1 9.66 12.4 14.48 18.6 47.36-48.8 108.41-104.4 184.18-159.8 117.78-86.3 286.35-182.9 509.56-248.5-4.8-6.6-9.59-13.3-14.33-20.1m-26.81 325.8c-9.82 0-19.63.3-29.44 1-200.76 13.1-378.4 154.9-495.36 276.3 4.75 7 9.35 14 13.87 20.9 114.7-119.5 289.69-261.3 483.04-273.9 9.23-.6 18.44-.9 27.59-.9 132.44 0 256.96 62.6 370.66 186.5 2.88-8.3 5.77-16.8 8.65-25.1-116.04-122.7-243.29-184.8-379.01-184.8M4967.9 6718c-2.66 7.6-5.23 15.2-7.79 22.7 41.89 5.3 144.37 24.2 248.41 88.7 93.45 58 165.26 136.5 214.79 235.1 6.61-4 13.15-7.7 19.46-11.1-61.9-122-147.42-197.9-222.87-244.5-104.59-64.5-205.52-84.7-252-90.9m-405.5 527.9c-77.95 0-163.76 19.8-245.85 47.6 4.37 6.8 8.81 13.8 13.24 20.9 78.79-26.3 160.36-44.9 233.59-44.9 50.56 0 97.12 8.8 136.08 30.1 2.96-7.1 5.84-14.4 8.81-21.7-42.37-22.6-92.29-32-145.87-32m187.83 52.6c-2.88 7.3-5.84 14.5-8.8 21.6 28.12 11.4 81.23 36.5 133.56 81 6.62 5.6 13.01 11.4 19.16 17.1 6.39-4.8 12.62-9.3 18.53-13.5-61.75-59.7-128.57-92.2-162.45-106.2" style="fill:#80b260;fill-opacity:1;fill-rule:nonzero;stroke:none" transform="matrix(.13333 0 0 -.13333 0 3282.053)"/><path d="M5215.53 4839.7c-.46-9.1-.86-18.1-1.4-27.1-7.48-148-16.74-296-25.62-437.6-7-112.2-13.93-223-19.7-329.2v-.1c-20.33-371.3-26.79-686.2 25.15-806.9l-42.9-18.5c-59.26 137.9-49.22 479.9-24.93 897.9 4.83 83.8 10.29 170.7 15.81 259.7 8.57 137.6 17.6 281.4 25 425.2.55 10.8 1.09 21.6 1.64 32.4 10.81 215.9 17.75 430.8 14.25 624.3-.24 8.2-.39 16.3-.54 24.4-1.17 51-3.13 100.6-5.92 148.1-8.42 142-36.14 302.8-76.01 471.1-1.79 7.9-3.66 15.7-5.61 23.5-44.93 185.8-104.11 379.8-167.97 567.4-2.88 8.3-5.77 16.8-8.65 25.1-68.91 200.7-142.81 393-209.86 558.5-2.97 7.3-5.85 14.6-8.81 21.7-70.01 172-131.76 313.1-171.48 401.8 4.21 16.2 6.47 30.6 6.47 42.8 0 7.6-.86 14.3-2.65 20.1 0 0 13.71-14.7 36.37-38.5 39.56-88.2 102.16-230.9 173.26-405.7 2.96-7.1 5.92-14.3 8.8-21.6 66.9-165.1 140.72-357.1 209.88-557.8 2.56-7.5 5.13-15.1 7.79-22.7 67.05-196.5 129.26-400.6 175.76-595.3 1.95-8.2 3.89-16.3 5.75-24.3 38.56-165.3 65.26-323.3 73.6-463.4 2.89-48.9 4.9-99.8 6.07-152.4.16-8.4.31-16.9.47-25.4 3.35-192-3.43-404.2-14.02-617.5" style="fill:#3e722e;fill-opacity:1;fill-rule:nonzero;stroke:none" transform="matrix(.13333 0 0 -.13333 0 3282.053)"/><path d="M5292.94 4693.1c86.54 4.1 159.22-45 162.31-109.7 3.08-64.6-64.65-120.4-151.18-124.5-86.53-4.1-159.22 45-162.32 109.6-3.07 64.7 64.58 120.5 151.19 124.6m838.93-375c33.27 52.1 171.28 23.6 308.17-63.8 136.93-87.3 220.98-200.5 187.7-252.7-33.28-52.1-171.26-23.6-308.19 63.8-136.98 87.4-220.95 200.5-187.68 252.7m-528.26 2144.5c-37.45-7.9-81.39 49.6-98.07 128.3-16.66 78.9.2 149.2 37.65 157.1 37.52 7.9 81.41-49.5 98.07-128.3 16.65-78.8-.2-149.1-37.65-157.1m616.97-787.2c-77.74 21.3-132.52 68.4-122.37 105.2 10.07 36.8 81.28 49.4 158.94 28 77.73-21.3 132.51-68.4 122.43-105.2-10.16-36.8-81.28-49.4-159-28m-140.8-448.5c38.62 51.9 138.96 42.7 224.11-20.7 85.16-63.3 122.75-156.8 84.13-208.8-38.7-51.9-139.03-42.7-224.1 20.7-85.17 63.3-122.84 156.8-84.14 208.8m-590.54-29.2c70.24 22.1 137.22 7.8 149.61-31.7 12.37-39.6-34.42-89.5-104.65-111.5s-137.22-7.8-149.6 31.8c-12.38 39.5 34.49 89.4 104.64 111.4m-1255.82 461.7s119.89-278.7 102.93-629.5c-.39-8.3-.88-16.7-1.44-25-5.42-81.4-18.38-166.5-42.05-252.5-129-469.2 785.38-910.9 1224.54-786.4 90.2 25.6 145.49 77 178.13 121.7l.03.2c13.45 18.3 23.02 35.3 29.65 49.2l.02.1c9.43 19.7 12.96 32.6 12.96 32.6s4.2-6.5 12.27-18.2c114.98-167.4 1016.14-1395.8 1780.5 30.3 4.09 7.6 8.19 15.4 12.27 23.1 81.01 154.4 160.44 339 237.1 558.1 0 0-438.85-348.1-845.2-274.5-406.35 73.6-421.57 276.2-411.04 334.3 10.51 58 126.17 101 335.21 63.1 208.96-37.8 394.12-383.5 930.66 128.9 0 0-2.27 272.3-68.64 562-1.8 8-3.67 16.1-5.62 24.1-34.8 144.6-85.85 291.8-160.88 410.1 0 0-598.41-611-1012.3-336.2 0 0-49.61 101 426.72 126.6 476.24 25.6 573.15 339.8 573.15 339.8s-59.7 100.3-125.1 223.8c-3.57 6.9-7.29 13.9-10.94 20.8-33.13 63.5-67 131.7-94.57 194.8-3.44 7.7-6.71 15.4-9.93 23-37.16 88.4-59.81 163.9-47.57 197.4 0 0-410.88-502.6-580.12-201.4-169.25 301.2 324.03 111.9 498.72 392 0 0-26.35 58.1-59.65 139.9-3.09 7.4-6.2 15.1-9.3 22.9-53.2 132.3-118.8 313.1-126.01 416.1-1.26 16.7-.91 31.3 1.28 43.3 1.34 7.5 3.39 14 6.18 19.3 0 0-16.11-12-42.64-31.3-81.39-59.2-260.97-186.7-375.6-244.6-7.15-3.6-14.08-6.9-20.66-10-18.56-8.5-34.78-14.6-47.83-17.6 0 0-18.53-211.9 19.7-243.3-4.65 2.2-153.81 78-144.21 217.9 0 0-231.63-142.8-390.76-200.8-7.22-2.7-14.31-5.1-21.13-7.4-39.89-13.1-73.76-19.6-96.28-15.5 0 0-83.94-308.6 221.86-451.9 0 0 173.61-299.3-236.26-201 0 0-208.44 217.6-169.24 566.3 0 0-370.62-120.5-567.58-262.4-6.57-4.8-12.98-9.6-19.23-14.4-36.2-28.1-65.08-56.9-82.4-85.6 0 0-60.23-464.8 542.89-709.9 0 0 168.17-86.5 73.68-233.2-94.58-146.8-672.6 501.6-777.29 828.3 0 0-173.09-176-301.39-367.4-4.54-6.7-9.03-13.6-13.45-20.5-59.79-91.9-107.5-186.2-119.24-264.9 0 0 206.08-473.1 612.06-438.7 0 0 279.26 41.3 172.92-303.2-106.43-344.4-417.54 166.6-519.18 245.5-101.56 78.9-450.7 291.8-450.7 291.8" style="fill:#64c431;fill-opacity:1;fill-rule:nonzero;stroke:none" transform="matrix(.13333 0 0 -.13333 0 3282.053)"/><path d="M7530.96 4181.9c-132.18 3.4-326.11 15.9-540.13 54.7-7.12 1.2-14.32 2.6-21.52 3.9-235.18 44.3-446.26 111.5-627.5 199.7-211.43 102.9-382.55 234.7-509.39 392.5-7.38 9.1-14.63 18.4-21.72 27.7-5.37-2.5-13.02-5.8-23.02-10-64.57-26.1-225.62-78.9-474.05-79.4h-3.17c-226.46 0-559.74 46-975.55 233.9.56 8.3 1.05 16.7 1.44 25 416.17-189.4 748.85-235.5 974.09-235.5h1.32c261.14.2 427.23 60.7 479.38 83 11.48 4.8 17.42 7.9 17.76 8.1l8.82 4.5 5.92-7.9c4.26-5.8 8.61-11.5 12.97-17.2 289.33-373.9 776.27-533.4 1136.49-601.3 227.83-43 434.54-55.6 570.13-58.6-4.08-7.7-8.18-15.5-12.27-23.1m-794.28 1090.3c-16.61 0-33.24.3-49.82.8-78.72 2.4-157.05 10.7-234.91 24.8-175.94 31.9-349.42 93.4-518.07 183.9-6.85 3.7-13.76 7.5-20.59 11.3-4.98-1.3-13.73-3.3-25.84-5.5-29.17-5.3-78.15-11.8-143.49-11.8-89.42 0-209.47 12.2-351.08 55.9-181.5 56.2-360.74 153.2-532.59 288.4-110.76 87.2-218.52 190.4-322.73 308.9 4.42 6.9 8.91 13.8 13.45 20.5 322.76-367.7 628.12-526.9 847.05-594.9 138.74-43.1 257.38-54.8 345.58-54.8 71.37 0 122.82 7.7 148.79 12.7 12.3 2.4 18.89 4.2 19.22 4.3l4.66 1.3 4.17-2.4c6.11-3.4 12.24-6.7 18.28-10 286.16-154.8 558.1-209 798.86-209 224.62 0 422.11 47.3 578.38 104.2 163.87 59.6 300.23 135.6 399.7 200.2 1.95-8 3.82-16.1 5.62-24.1-100.01-64.5-235-138.9-396.44-197.8-194.8-71-392.37-106.9-588.2-106.9m-282.43 802.1c-101.03 0-209.29 7.8-324.46 26-6.7 1.1-13.38 2.1-20.14 3.3-.91 0-2.3-.1-4.16-.1-5 0-13.42.1-24.87.6-28.97 1.3-77.27 5.1-138.42 16.2-87.05 15.8-200.22 46.3-320.43 105.4-152.69 74.9-287.08 180.5-399.4 313.7-46.05 54.7-88.4 114-126.85 177.8 6.25 4.8 12.66 9.6 19.23 14.4 157.69-260.9 355.13-405.2 516.3-484.5 211.36-104.1 400-118.2 459.58-120.1 5.77-.1 10.32-.2 13.57-.2 3.72 0 5.74.1 5.96.1l2.27-.1c9.07-1.5 18.14-3 27.07-4.3 111.7-17.4 216.67-24.9 314.8-24.9 325.87 0 575.83 82.9 742.34 164 84.45 41 154.44 84.8 209.71 124.3 3.65-6.9 7.37-13.9 10.94-20.8-55.61-39.6-125.47-83.2-209.32-124-169.06-82.5-422.89-166.8-753.72-166.8" style="fill:#93d563;fill-opacity:1;fill-rule:nonzero;stroke:none" transform="matrix(.13333 0 0 -.13333 0 3282.053)"/><path d="M6830.31 6394c-18.37 0-36.8 1-55.22 3.1-9.78 1.1-19.5 2.5-29.15 4.3-133.56 24.2-247.7 108-339.99 249.4-5.28 8-10.44 16.2-15.49 24.6-4.39 1.1-11.47 3.1-20.75 6-44.63 14.5-140.34 52.3-231.75 134.5-65.93 59.2-136.54 149.2-175.71 280.2 6.82 2.3 13.91 4.7 21.13 7.4 31.17-105.7 87.8-195.8 169.41-269.6 90.89-81.9 188.36-118.8 228.64-131.5 11.9-3.7 18.89-5.4 19.19-5.4l4.87-1.2 2.55-4.2c3.59-6 7.18-11.9 10.89-17.7 96-152 216.67-237.2 358.77-253.6 17.13-1.9 34.29-2.9 51.45-2.9 175.7 0 350.46 97.8 472.7 186.3 3.22-7.6 6.49-15.3 9.93-23-124.15-89.5-300.47-186.7-481.47-186.7m137.74 725.9c-36.45 0-71.91 2.6-105.22 8.7-52.71 9.5-100.16 27.7-137.81 57.5-6.6 5.1-12.89 10.6-18.78 16.4-2.95 1.7-9.63 5.4-18.84 11.4-30.85 19.7-90.79 63.7-140.92 133.4 6.58 3.1 13.51 6.4 20.66 10 5.01-6.8 10.28-13.6 15.79-20.3 43.57-53.1 91.34-87.3 116.98-103.5 11.49-7.3 18.51-10.9 18.72-11l1.58-.9 1.35-1.3c5.08-5.2 10.4-9.9 16-14.4 56.42-45.6 138.77-62.2 228.61-62.2 44.82 0 91.51 4.2 137.76 10.8 3.1-7.8 6.21-15.5 9.3-22.9-48.5-7.2-97.69-11.7-145.18-11.7" style="fill:#93d563;fill-opacity:1;fill-rule:nonzero;stroke:none" transform="matrix(.13333 0 0 -.13333 0 3282.053)"/><path d="M5791.14 4877.4c-1.16-9-2.39-18-3.46-27-19.03-146.9-36.29-294.1-52.81-435.1-13.11-111.7-26.06-221.9-39.31-327.4l-.03-.2c-46.2-368.9-95.98-679.9-168.61-789.4l38.93-25.8c82.89 125.1 133.99 463.4 184.61 879.1 10.19 83.3 20.33 169.7 30.75 258.2 16.11 137 32.86 280.1 51.21 422.9l4.18 32.2c27.84 214.4 59.33 427 97.28 616.8 1.69 8 3.29 15.9 4.88 23.9 10.26 50 21.01 98.4 32.24 144.7 33.6 138.2 89.55 291.5 158.79 450 3.16 7.4 6.39 14.8 9.71 22.2 77.33 174.7 170.17 355.1 266.45 528.3 4.32 7.7 8.65 15.5 12.98 23.1 103.59 185.2 210.61 361.3 306.09 512.2 4.22 6.7 8.34 13.3 12.53 19.8 99.55 156.7 185.47 284.5 240.37 364.7-1.25 16.7-.91 31.3 1.27 43.3 1.35 7.5 3.4 14 6.19 19.3 0 0-16.11-12-42.64-31.3-54.66-79.8-141.72-209.1-242.84-368.4-4.19-6.5-8.38-13-12.5-19.6-95.28-150.6-202.14-326.3-305.97-511.5-3.88-7-7.75-13.9-11.72-21-101-181.3-198.62-371.1-279.08-554.4-3.37-7.7-6.73-15.3-10.01-22.9-67.4-155.7-121.86-306.5-155.03-442.8-11.56-47.6-22.64-97.4-33.16-148.9-1.65-8.2-3.31-16.6-4.98-24.9-37.52-188.3-68.71-398.4-96.31-610.1" style="fill:#529f35;fill-opacity:1;fill-rule:nonzero;stroke:none" transform="matrix(.13333 0 0 -.13333 0 3282.053)"/><path d="M6077.42 1810.6H4653.09c-74.52 0-137.08 56.1-145.16 130.2l-138.76 1273.4c-9.42 86.3 58.25 161.8 145.15 161.8h1701.87c86.91 0 154.57-75.5 145.15-161.8l-138.77-1273.4c-8.07-74.1-70.63-130.2-145.15-130.2" style="fill:#d58a18;fill-opacity:1;fill-rule:nonzero;stroke:none" transform="matrix(.13333 0 0 -.13333 0 3282.053)"/><path d="M6453.77 2955.5H4297.29c-57.78 0-104.62 46.8-104.62 104.6v211.3c0 57.7 46.84 104.6 104.62 104.6h2156.48c57.79 0 104.62-46.9 104.62-104.6v-211.3c0-57.8-46.83-104.6-104.62-104.6" style="fill:#f9a70d;fill-opacity:1;fill-rule:nonzero;stroke:none" transform="matrix(.13333 0 0 -.13333 0 3282.053)"/><path d="M24627.8 6056.9h-1143.3c-22.2 0-40.3 18.2-40.3 40.3 0 22.2 18.1 40.4 40.3 40.4h1143.3c22.2 0 40.4-18.2 40.4-40.4 0-22.1-18.2-40.3-40.4-40.3m-1172.4 142.9-250.3 1332.8c-4.6 24.9-26.3 42.9-51.6 42.9h-864.7c-32.9 0-57.7-29.8-51.7-62.1l247.1-1332.9c4.6-24.9 26.3-42.9 51.7-42.9h867.9c32.9 0 57.7 29.9 51.6 62.2" style="fill:#d8d7d6;fill-opacity:1;fill-rule:nonzero;stroke:none" transform="matrix(.13333 0 0 -.13333 0 3282.053)"/><path d="m23432.5 6199.8-250.3 1332.8c-4.7 24.9-26.4 42.9-51.7 42.9h-864.7c-32.8 0-57.6-29.8-51.6-62.1l247-1332.9c4.6-24.9 26.4-42.9 51.7-42.9h867.9c33 0 57.8 29.9 51.7 62.2m19.2-142.9H22506c-20.2 0-36.8 16.6-36.8 36.8v7.1c0 20.2 16.6 36.8 36.8 36.8h945.7c20.3 0 36.9-16.6 36.9-36.8v-7.1c0-20.2-16.6-36.8-36.9-36.8" style="fill:#ebebea;fill-opacity:1;fill-rule:nonzero;stroke:none" transform="matrix(.13333 0 0 -.13333 0 3282.053)"/><path d="M23651.7 6079.6h-101c-10.4 0-18.8 8.4-18.8 18.8 0 10.3 8.4 18.8 18.8 18.8h101c10.4 0 18.8-8.5 18.8-18.8 0-10.4-8.4-18.8-18.8-18.8m172.2 0h-101.1c-10.3 0-18.8 8.4-18.8 18.8 0 10.3 8.5 18.8 18.8 18.8h101.1c10.3 0 18.8-8.5 18.8-18.8 0-10.4-8.5-18.8-18.8-18.8" style="fill:#b5b5b4;fill-opacity:1;fill-rule:nonzero;stroke:none" transform="matrix(.13333 0 0 -.13333 0 3282.053)"/><path d="M23100.4 3542.6S22867 3250.3 22590 3283c0 0-28.4-163.6 157-196.3 185.4-32.7 447.2 0 447.2 0l246.5 349-340.3 106.9" style="fill:#e9d5ba;fill-opacity:1;fill-rule:nonzero;stroke:none" transform="matrix(.13333 0 0 -.13333 0 3282.053)"/><path d="M22590 3283s-464.7 19.6-558.5 69.8c0 0-91.6 8.7 28.4-126.5 119.9-135.3 529.4-375.2 927.8-312l-35.6-185.4 62.5-30.5 186.6 398.2s-327.7-95-611.2 186.4" style="fill:#8f191e;fill-opacity:1;fill-rule:nonzero;stroke:none" transform="matrix(.13333 0 0 -.13333 0 3282.053)"/><path d="M25111.7 8837.5s-155.5 332.2 243.9 410.6c399.5 78.4 593.6-209 653.3-433 0 0 481.6 126.9 530.1-466.6 0 0 944.4-354.7 85.9-1183.4l-664.5 199.2-369.6 1159.6-358.3 250.1-120.8 63.5" style="fill:#a45c27;fill-opacity:1;fill-rule:nonzero;stroke:none" transform="matrix(.13333 0 0 -.13333 0 3282.053)"/><path d="M25123 9046s-84.6-519.4 203-897.1c0 0 208.6 67.6 265 0 28.2-33.9 76.9-130.4 110.7-215 0 0-65-27.5-64.2-35.4 6.7-59 7.2-54 7.2-54l487.6 99.2s-231.2 425.1-259.4 707c-28.2 281.9-112.8 524.4-366.5 487.7-253.7-36.6-383.4-92.4-383.4-92.4" style="fill:#e9d5ba;fill-opacity:1;fill-rule:nonzero;stroke:none" transform="matrix(.13333 0 0 -.13333 0 3282.053)"/><path d="M25473.7 8923.7s405.4-339.1 543.1-680.7l168.3 288.1-355.7 377.3-330.2 170.9-25.5-155.6" style="fill:#a45c27;fill-opacity:1;fill-rule:nonzero;stroke:none" transform="matrix(.13333 0 0 -.13333 0 3282.053)"/><path d="M25123 9046s42.3-472.6 807.5-586.6l-30 495.1-204 195-222.8 45-231.9-39L25123 9046" style="fill:#a45c27;fill-opacity:1;fill-rule:nonzero;stroke:none" transform="matrix(.13333 0 0 -.13333 0 3282.053)"/><path d="M26946.4 3763.3h-1014.7v139.2h1013.4c28.3.7 570.3 23.8 570.3 663.5 0 335.1-104 465.5-214.1 603.6-121.7 152.5-247.6 310.3-247.6 703.8h139.2c0-344.8 105.5-477 217.2-617 120.2-150.7 244.5-306.6 244.5-690.4 0-406.2-192.6-603.5-354.2-697.6-173.5-100.9-346.1-105-353.4-105.1h-.6" style="fill:#2f2d2e;fill-opacity:1;fill-rule:nonzero;stroke:none" transform="matrix(.13333 0 0 -.13333 0 3282.053)"/><path d="M24978.7 3131.1s336.9-677.6 192.5-801.7c-151.3-129.9-418.1-36.2-418.1-36.2s68.5 261.8-96.7 765.4l322.3 72.5" style="fill:#e9d5ba;fill-opacity:1;fill-rule:nonzero;stroke:none" transform="matrix(.13333 0 0 -.13333 0 3282.053)"/><path d="m25171.2 5530-1195.4-894s625.2-1530.1 636.2-1820.8c0 0 312.5 21.9 477.1 148.1l-438.7 1382 1672.8 259.8-60.4 689-362 279.7-729.6-43.8" style="fill:#8e331c;fill-opacity:1;fill-rule:nonzero;stroke:none" transform="matrix(.13333 0 0 -.13333 0 3282.053)"/><path d="M24318.3 6268.8s-58.9-94.8-293-64.5c0 0-206.2-26-272-90.7 0 0-19.4.9 27.3 61.3 46.7 60.5 192.4 268.8 460 214.5l115.7-42.9-38-77.7" style="fill:#e9d5ba;fill-opacity:1;fill-rule:nonzero;stroke:none" transform="matrix(.13333 0 0 -.13333 0 3282.053)"/><path d="M24251.4 6385.4s69.5-51.5 58.8-129.4c0 0 723.5-174.4 796.4-163 73 11.5 482 475.7 482 475.7l-327 251.4s-114.2-453.6-219.9-474.3c-105.7-20.7-790.3 39.6-790.3 39.6" style="fill:#8f191e;fill-opacity:1;fill-rule:nonzero;stroke:none" transform="matrix(.13333 0 0 -.13333 0 3282.053)"/><path d="M25701.7 7933.9s-25.4-150.1 397.9 57.5l315.1-505.5s-100.8-1163-56-1393.4c44.8-230.4 156.8-682.1 156.8-682.1s-1153.5-138.1-1343.9 78.4l164.3 915.3-22.4 880.2 130.6 399.5 257.6 250.1" style="fill:#234465;fill-opacity:1;fill-rule:nonzero;stroke:none" transform="matrix(.13333 0 0 -.13333 0 3282.053)"/><path d="M25701.3 7933.9s-358.4-334.3-317.3-1386c41-1051.6-239-1103.9-239-1103.9l-55.9 26.1s227.7 811.5 182.9 1245.7c-44.8 434.2-97.1 1020.2 429.3 1218.1" style="fill:#bb2723;fill-opacity:1;fill-rule:nonzero;stroke:none" transform="matrix(.13333 0 0 -.13333 0 3282.053)"/><path d="M25145.1 5996.5s-128.7-94.2-422.8 71.3c0 0-287.3 75.8-409 25.2 0 0-25.3 11.5 68.9 66.7 94.2 55.1 398.8 253.4 724.4 38.2l130.4-118.6-91.9-82.8" style="fill:#e9d5ba;fill-opacity:1;fill-rule:nonzero;stroke:none" transform="matrix(.13333 0 0 -.13333 0 3282.053)"/><path d="m26515 5410.4-2564.4-42.7c-28.1-.4-53.4-17.1-65-42.7-121.8-270.1-794.8-1752.5-924.4-1802.3l455.2-318.1 694.8 1528.6s1937.7-305.6 2288.7-97.2c447.3 265.6 115.1 774.4 115.1 774.4" style="fill:#9d3d1e;fill-opacity:1;fill-rule:nonzero;stroke:none" transform="matrix(.13333 0 0 -.13333 0 3282.053)"/><path d="M24761.7 2346.2s-210.1-407.6-383.3-512.3c0 0-36.3-60.4 108.8-24.2 145 36.3 722.8 406.9 722.8 406.9l101.8-200.1 49.6 29.2-156.5 436.8s-36.3-140.3-443.2-136.3" style="fill:#8f191e;fill-opacity:1;fill-rule:nonzero;stroke:none" transform="matrix(.13333 0 0 -.13333 0 3282.053)"/><path d="M26104.1 7997.8s-482.6-187-482.6-1250-91.3-1636.9-91.3-1636.9 703.1 395.6 1103.7 165.2c0 0-208.1 534.8-147.2 1008.7 60.8 473.9 220.6 1204 7.1 1429.2-213.4 225.3-389.7 283.8-389.7 283.8" style="fill:#bb2723;fill-opacity:1;fill-rule:nonzero;stroke:none" transform="matrix(.13333 0 0 -.13333 0 3282.053)"/><path d="M26403.3 7764.3s587.4-140.4-133-2035.5c0 0-254.9-88.7-1148.9 251.2 0 0 59.1 133-14.8 217.9l783.2-110.8s291.9 528.3 147.8 1359.5c0 0 144.1 310.3 365.7 317.7" style="fill:#8f191e;fill-opacity:1;fill-rule:nonzero;stroke:none" transform="matrix(.13333 0 0 -.13333 0 3282.053)"/><path d="M26299.5 3874.7c0-80.9-170-188.3-373.2-188.3-203.1 0-362.4 107.4-362.4 188.3 0 81 159.3 104.7 362.4 104.7 203.2 0 373.2-23.7 373.2-104.7" style="fill:#2f2d2e;fill-opacity:1;fill-rule:nonzero;stroke:none" transform="matrix(.13333 0 0 -.13333 0 3282.053)"/><path d="M26736.1 3998.9h-1608.9c-155.9 0-283.5 127.6-283.5 283.5 0 156 127.6 283.6 283.5 283.6h1608.9c156 0 283.5-127.6 283.5-283.6 0-155.9-127.5-283.5-283.5-283.5" style="fill:#42a0d0;fill-opacity:1;fill-rule:nonzero;stroke:none" transform="matrix(.13333 0 0 -.13333 0 3282.053)"/><path d="M26761 3874.7h-1616.4c-30.5 0-55.5 25.1-55.5 55.6v13.1c0 30.5 25 55.5 55.5 55.5H26761c30.6 0 55.6-25 55.6-55.5v-13.1c0-30.5-25-55.6-55.6-55.6m-825.8-1425.4v10.6c-50.7 0-92.1 41.4-92.1 92.1v1168.8c0 50.7 41.4 92.1 92.1 92.1 50.6 0 92-41.4 92-92.1V2552c0-50.7-41.4-102.7-92-102.7" style="fill:#2f2d2e;fill-opacity:1;fill-rule:nonzero;stroke:none" transform="matrix(.13333 0 0 -.13333 0 3282.053)"/><path d="m26645.3 2033.4-720.5 415.9c-41.2 23.8-55.5 77-31.7 118.3 23.8 41.2 77 55.4 118.2 31.6l720.5-415.9c41.2-23.8 55.5-77 31.7-118.2-23.8-41.3-77-55.5-118.2-31.7" style="fill:#2f2d2e;fill-opacity:1;fill-rule:nonzero;stroke:none" transform="matrix(.13333 0 0 -.13333 0 3282.053)"/><path d="m25223.1 2033.4 720.5 415.9c41.2 23.8 55.4 77 31.6 118.3-23.8 41.2-76.9 55.4-118.2 31.6l-720.5-415.9c-41.2-23.8-55.4-77-31.6-118.2 23.8-41.3 77-55.5 118.2-31.7m1830.1 7c0-136.4-110.6-247-247.1-247-136.4 0-247 110.6-247 247 0 136.5 110.6 247.1 247 247.1 136.5 0 247.1-110.6 247.1-247.1" style="fill:#2f2d2e;fill-opacity:1;fill-rule:nonzero;stroke:none" transform="matrix(.13333 0 0 -.13333 0 3282.053)"/><path d="M26945.8 2040.4c0-77.1-62.5-139.7-139.7-139.7-77.1 0-139.7 62.6-139.7 139.7 0 77.2 62.6 139.7 139.7 139.7 77.2 0 139.7-62.5 139.7-139.7" style="fill:#58595b;fill-opacity:1;fill-rule:nonzero;stroke:none" transform="matrix(.13333 0 0 -.13333 0 3282.053)"/><path d="M25368 2040.4c0-136.4-110.6-247-247-247-136.5 0-247.1 110.6-247.1 247 0 136.5 110.6 247.1 247.1 247.1 136.4 0 247-110.6 247-247.1" style="fill:#2f2d2e;fill-opacity:1;fill-rule:nonzero;stroke:none" transform="matrix(.13333 0 0 -.13333 0 3282.053)"/><path d="M25260.7 2040.4c0-77.1-62.6-139.7-139.7-139.7-77.2 0-139.7 62.6-139.7 139.7 0 77.2 62.5 139.7 139.7 139.7 77.1 0 139.7-62.5 139.7-139.7" style="fill:#58595b;fill-opacity:1;fill-rule:nonzero;stroke:none" transform="matrix(.13333 0 0 -.13333 0 3282.053)"/><path d="M27652.9 6895.7c-67.4-201.5-231.3-803.3-7.2-1351.1 14.3-34.9-11.5-73.2-49.2-73.2h-609.4c-18.6 0-35.9 9.6-45.5 25.5-54 90.3-199.3 443.4 8.9 1426.7 5.2 24.5 26.9 42.2 52 42.2h600c36.3 0 61.9-35.6 50.4-70.1" style="fill:#3587aa;fill-opacity:1;fill-rule:nonzero;stroke:none" transform="matrix(.13333 0 0 -.13333 0 3282.053)"/><path d="M27525.4 6884.3c-68.9-210.4-221-792.7-8.5-1327.2 16.3-41.1-13.5-85.7-57.7-85.7h-590.6c-22.2 0-42.8 11.7-53.8 30.9-56.1 98.1-191.6 454.7 10.5 1414 6 28.8 31.5 49.5 60.9 49.5h580c42.3 0 72.3-41.3 59.2-81.5" style="fill:#42a0d0;fill-opacity:1;fill-rule:nonzero;stroke:none" transform="matrix(.13333 0 0 -.13333 0 3282.053)"/><path d="M24887 5887.1h-9748.9v169.8H24887v-169.8" style="fill:#97621d;fill-opacity:1;fill-rule:nonzero;stroke:none" transform="matrix(.13333 0 0 -.13333 0 3282.053)"/><path d="M24887 5887.1h-9748.9v84.9H24887v-84.9" style="fill:#774c16;fill-opacity:1;fill-rule:nonzero;stroke:none" transform="matrix(.13333 0 0 -.13333 0 3282.053)"/><path d="M16194.1 1804.4h-134.8v4082.7h134.8V1804.4m7672.1 0h-134.9v4082.7h134.9V1804.4" style="fill:#82511c;fill-opacity:1;fill-rule:nonzero;stroke:none" transform="matrix(.13333 0 0 -.13333 0 3282.053)"/><path d="M36568.1 5198.8c-1.7-94.2-192.6-1063.9-1853.3-1696.5 0 0 218.1 375 824.3 802.5 592.6 417.6 980.8 768.7 1022.6 886.2 1 2.7 1.7 5.3 2.3 7.8 2.4 10.1 4.3 9.7 4.1 0M34767.9 3379l-.2.1c-16.1 7.7-1049.8 503-1251.4 719.4-210.1 225.6-400.3 577.3-563.7 827-84.2 128.4-161.2 229.8-230.3 273.3-3.9 2.5-7.9 4.8-11.8 6.9 40.5-21.2 1340.5-710.5 2057.4-1826.7m2063.9 2640.4s-302.4-232.2-362-344.5c-113.4-213.7-494.2-463.7-928.9-658.5-268.8-120.4-408.6-218-845.9-771.6l.7 1.2c20.9 40.9 476.3 916.7 1093.9 1193.4 632.3 283.5 545.1 462.3 688.9 532 144 69.9 353.3 48 353.3 48m-2090-1998.8c-257.4 370.7-806.8 654.1-959.5 750-152.6 96-348.9 331.5-514.6 606.2-165.8 274.8-745.8 383.8-745.8 383.8 545.2 139.5 998.7-152.6 1107.8-327 109-174.4 322.7-405.6 632.3-632.4 309.6-226.8 479.8-780.6 479.8-780.6m2037.5 3281.1c-13.1-296.6-292.1-955.1-872.1-1229.8-571-270.4-1141.9-828.3-1159.7-845.5l.5.6c6.2 7.2 12.4 15.4 18.8 24.5 125.6 178 314 690.5 1009.5 1034.1 732.7 362 1003 1016.1 1003 1016.1M32518.4 6847c-14.8 1.7-22.6 2.2-22.6 2.2s7.1.7 22.6-2.2m2249.5-1820.8s-244.1-130.2-1127.4 866.7c-591.9 668.3-908 869.9-1049.8 930.5l-1.1.5c-32.5 13.8-55.6 20.1-70.8 23.1 142.9-16 916.3-130.6 1307.1-774.1 431.4-710.1 780-950.3 941.6-1046.5l.4-.2m1622.3 2614.5-.1-.5-.7-1.3c-17.2-39.2-299-670.9-539.8-979.3-246.5-316-1029.9-777.6-1042.2-784.8 5 9.2 304.5 547.4 728.2 832.8 424.1 285.6 848.1 923.1 854.6 933.1m-1560.9-1857.1-.5.1c-23.6 4-784.5 136.6-1338.3 892.2-562.7 767.5-287.9 828.6-745.8 1299.6l.4-.2c17.3-9.9 572.9-332.2 976.4-1212.2 0 0 288-559.1 1107.8-979.5m802.6 1480.6c-185.5-187.5-678.9-677.4-762-759.9v-.1l-.5-.3c-7.5-7.6-11.5-11.5-11.5-11.5s.4 3.5 1.5 10.2c12.7 82.4 115.9 646.6 596 1003.7 510.9 380 721.7 994.3 728.3 1013.4l.1.5c13-514.6-349-1050.9-551.9-1256m-762.4-863.3-1 .4c-31 13-695.4 297.6-1006.3 906.6-318.2 623.3-427.2 919.8-610.2 1068.2h.1c18.2-10.6 602.1-356.5 919.7-1133.6 0 0 134.9-287.2 696-839.9l1.7-1.7m28.7 713.4c-49.2 43-435.6 392.6-692.5 963.5-274.4 609.8-366.1 815.1-475 858.9 3.4-.6 28-6.1 67-21.1 1.2-.5 2.5-1 3.7-1.6 152.4-59.8 512.6-263.4 705.2-888.5 176.3-572.2 302.1-793.4 360.4-873.6 15-20.7 25.4-32 31.2-37.6m4.9-4.3v-.1l-.1.1h.1m694.1 1946.8.7-1.6c-.5 1-.7 1.6-.7 1.6m-202.8-1064.1c-429.3-566.8-499.5-662.2-501.5-665v.3c3.1 11.8 104.2 396.7 357.5 821.7 246.3 413.2 372.7 798.5 350.7 895.8l-.8 2.6c-.7 2.7-1.5 5-2.4 7.1 13.7-30.1 218.5-505.6-203.5-1062.5" style="fill:#74c93f;fill-opacity:1;fill-rule:nonzero;stroke:none" transform="matrix(.13333 0 0 -.13333 0 3282.053)"/><path d="M34854.6 2604.5c-7.4 11.1-9.8 17-14.1 24.8-4.2 7.7-6.9 14.5-10.1 21.7l-9.3 21.3c-2.7 7.1-5.1 14.1-7.7 21.1-4.8 14.1-10.5 28.2-14.6 42.2l-12.4 42.2-6.2 21c-2 7.1-3.5 14.1-5.2 21.1l-10 42.2c-3.2 14.1-7 28.2-9.6 42.3l-7.9 42.3-7.9 42.3c-2.6 14.1-5.4 28.2-7.1 42.3l-12.1 84.8-6 42.3-4.3 42.4-8.7 84.9-4.3 42.3-2.9 42.5-5.7 84.8c-1.7 28.3-4 56.6-5.4 84.8l-2.9 84.9-2.9 84.8c-.9 28.2-2.3 56.5-2.1 84.7l-.8 169.5c.4 451.8 29.5 902 70.2 1350.6 19 224.6 42.7 447.9 62.8 672 20.4 224 40.3 448 56.1 672.2 3.7 56.1 8.5 112.1 11.4 168.2l9.2 168.3c4 112.2 8.6 224.6 3.8 336.6-.4 28.1-2.9 55.9-5.2 83.9-1.6 28-6.2 55.6-9.7 83.4-4.1 27.7-9.3 55.3-14.5 82.9-5.4 27.6-10.7 55.2-15.5 83-20.1 110.9-28.9 223.3-35.7 335.5 9.1-112.1 20.2-224.1 42.5-334.2 5.4-27.6 11.3-55.1 17.2-82.6 5.7-27.5 11.5-55.2 16.3-83 4.1-27.9 9.3-55.7 11.5-83.8 2.8-28.1 6-56.2 6.9-84.4 7.2-112.7 4.8-225.4 3.1-338l-5.7-168.8c-1.8-56.3-5.4-112.5-8-168.7-11.2-224.8-26.5-449.4-42.2-673.9-15.6-224.4-34.7-448.9-49-673-31.5-448.1-51.2-897.4-42.4-1345.4l4.3-167.9c.3-28 2.3-55.9 3.8-83.8l4.6-83.8 4.6-83.7c1.9-27.9 4.7-55.6 7-83.4l7.2-83.4 3.7-41.7 5.1-41.4 10.2-82.8 5.1-41.4 6.7-41.1 13.4-82c2-13.8 4.9-27.2 7.7-40.7l8.5-40.5 8.4-40.4c2.7-13.5 6.6-26.6 9.9-39.8l10.2-39.7c1.8-6.6 3.3-13.3 5.3-19.8l6.1-19.3 12.2-38.5c4-12.9 9.2-24.8 13.8-37.2 2.4-6.1 4.6-12.4 7.1-18.4l7.9-17.2c2.7-5.6 5.2-11.8 8-16.4 2.5-4.5 6.2-11.3 6.6-11.9 19.9-23.4 17-58.4-6.4-78.3-23.4-19.8-58.4-17-78.3 6.4-1.4 1.6-2.6 3.2-3.7 4.9l-1.9 2.9" style="fill:#8e531d;fill-opacity:1;fill-rule:nonzero;stroke:none" transform="matrix(.13333 0 0 -.13333 0 3282.053)"/><path d="M34907.5 8414.8c-74.5-580.4-38.8-845.5-35.2-870.3l.3-1.9s-213.6 309.6-196.2 1029.2c15 617.4-82.4 836.7-110.3 886.6-.9 1.4-1.7 2.6-2.3 3.8-.6 1.1-1.1 1.9-1.7 2.7-1 1.8-1.9 3.1-2.5 4l-.6.9c14.9-15.5 425.7-455.4 348.5-1055" style="fill:#74c93f;fill-opacity:1;fill-rule:nonzero;stroke:none" transform="matrix(.13333 0 0 -.13333 0 3282.053)"/><path d="M36561.7 5191c.8 2.5 1.5 5.2 2.3 7.8-.6-2.5-1.3-5.1-2.3-7.8" style="fill:#d9d5d4;fill-opacity:1;fill-rule:nonzero;stroke:none" transform="matrix(.13333 0 0 -.13333 0 3282.053)"/><path d="M34776.2 3526.1c-.3 4.4-.7 8.7-1 13.1 297 183.8 1596.5 1017.8 1786.5 1651.8 1 2.7 1.7 5.3 2.3 7.8h4.1c-1.7-93.1-187.9-1039.9-1791.9-1672.7" style="fill:#68ae3e;fill-opacity:1;fill-rule:nonzero;stroke:none" transform="matrix(.13333 0 0 -.13333 0 3282.053)"/><path d="M34714.8 3502.3s21.7 12.9 60.4 36.9c.3-4.4.7-8.7 1-13.1-20.2-8-40.7-15.9-61.4-23.8" style="fill:#7c4b1f;fill-opacity:1;fill-rule:nonzero;stroke:none" transform="matrix(.13333 0 0 -.13333 0 3282.053)"/><path d="M34691.1 3416.3c-245.4 120.1-1005.1 500-1174.8 682.2-210.1 225.6-400.3 577.3-563.7 827 699.6-788.7 1491-1335.2 1737.7-1496.8l.8-12.4" style="fill:#68ae3e;fill-opacity:1;fill-rule:nonzero;stroke:none" transform="matrix(.13333 0 0 -.13333 0 3282.053)"/><path d="M34767.7 3379.1c-2.5 1.2-30.5 14.6-76.6 37.2l-.8 12.4c47.4-31.1 74.8-48 77.4-49.6" style="fill:#7c4b1f;fill-opacity:1;fill-rule:nonzero;stroke:none" transform="matrix(.13333 0 0 -.13333 0 3282.053)"/><path d="M36829.9 6019.6c-.9.1-2.1.2-3.5.3 1.8.4 3.6.8 5.3 1.2l-1.8-1.5" style="fill:#d9d5d4;fill-opacity:1;fill-rule:nonzero;stroke:none" transform="matrix(.13333 0 0 -.13333 0 3282.053)"/><path d="m34756.2 4323.5.3 17.5c144.5 214.4 520.4 728.6 885 864.7 464.1 173.4 746.1 535 766 554.9 19.7 19.8 207.4 213.1 418.9 259.3 1.4-.1 2.6-.2 3.5-.3-25.4-19.6-303.3-236-360.2-343.1-113.4-213.7-494.2-463.7-928.9-658.5-255.8-114.5-394.8-208.5-784.6-694.5" style="fill:#68ae3e;fill-opacity:1;fill-rule:nonzero;stroke:none" transform="matrix(.13333 0 0 -.13333 0 3282.053)"/><path d="m34694.9 4246.4.6 1.2c4.5 7.1 25.9 41.5 61 93.4l-.3-17.5c-19.8-24.7-40.2-50.4-61.3-77.1" style="fill:#7c4b1f;fill-opacity:1;fill-rule:nonzero;stroke:none" transform="matrix(.13333 0 0 -.13333 0 3282.053)"/><path d="M34675.5 4107c-275.6 328-752.6 575.3-893.2 663.6-152.6 96-348.9 331.5-514.6 606.2-165.8 274.8-745.8 383.8-745.8 383.8s590.9-17.1 713.4-225c122.4-207.9 495.4-595.1 785.9-728.9 232.8-107.3 522.3-485.4 654.5-681.1-.1-6.2-.1-12.4-.2-18.6" style="fill:#68ae3e;fill-opacity:1;fill-rule:nonzero;stroke:none" transform="matrix(.13333 0 0 -.13333 0 3282.053)"/><path d="M34741.8 4020.6c-20.4 29.4-42.6 58.2-66.3 86.4.1 6.2.1 12.4.2 18.6 32.8-48.5 55.9-85.8 66.1-105" style="fill:#7c4b1f;fill-opacity:1;fill-rule:nonzero;stroke:none" transform="matrix(.13333 0 0 -.13333 0 3282.053)"/><path d="M34797.3 5273.8c.4 5.9.9 11.9 1.3 17.9 145.5 181.5 577.2 687 991 853.3 507.6 204.1 968.8 892.5 989.7 1156.7-13.1-296.6-292.1-955.1-872.1-1229.8-478.5-226.6-957-655.1-1109.9-798.1" style="fill:#68ae3e;fill-opacity:1;fill-rule:nonzero;stroke:none" transform="matrix(.13333 0 0 -.13333 0 3282.053)"/><path d="m34747.5 5226.4.5.6c2.2 3 8.6 11.4 18.8 24.5 8.2 10.5 18.9 24.1 31.8 40.2-.4-6-.9-12-1.3-17.9-29.5-27.7-46.9-44.6-49.8-47.4" style="fill:#7c4b1f;fill-opacity:1;fill-rule:nonzero;stroke:none" transform="matrix(.13333 0 0 -.13333 0 3282.053)"/><path d="M34842.6 5895.8c.4 5.5.8 10.9 1.2 16.4 104.6 106.6 410 414.1 616.4 580.2 252 202.5 752.7 770.2 929.2 1146.5-17.2-39.2-299-670.9-539.8-979.3-217-278.2-850.2-669.3-1007-763.8" style="fill:#68ae3e;fill-opacity:1;fill-rule:nonzero;stroke:none" transform="matrix(.13333 0 0 -.13333 0 3282.053)"/><path d="M34807.4 5874.8c1.5 1.6 14.6 15.1 36.4 37.4-.4-5.5-.8-10.9-1.2-16.4-21.3-12.8-33.8-20.2-35.2-21" style="fill:#7c4b1f;fill-opacity:1;fill-rule:nonzero;stroke:none" transform="matrix(.13333 0 0 -.13333 0 3282.053)"/><path d="M34719.8 5021.1c-106.7 7.8-408.9 115.1-1079.3 871.8-591.9 668.3-908 869.9-1049.8 930.5 572.9-219.3 786.8-419.2 956.9-653.7 597.2-823.6 1035.6-1064.1 1174.1-1125.1-.6-7.8-1.2-15.6-1.9-23.5" style="fill:#68ae3e;fill-opacity:1;fill-rule:nonzero;stroke:none" transform="matrix(.13333 0 0 -.13333 0 3282.053)"/><path d="M34733 5020.6c-4 0-8.4.2-13.2.5.7 7.9 1.3 15.7 1.9 23.5 27.1-11.9 42.7-17 45.8-18.2l.4-.2s-10.5-5.6-34.9-5.6" style="fill:#7c4b1f;fill-opacity:1;fill-rule:nonzero;stroke:none" transform="matrix(.13333 0 0 -.13333 0 3282.053)"/><path d="m34859.4 6502.6 10 1.3c-7.5-7.6-11.5-11.5-11.5-11.5s.4 3.5 1.5 10.2" style="fill:#74c93f;fill-opacity:1;fill-rule:nonzero;stroke:none" transform="matrix(.13333 0 0 -.13333 0 3282.053)"/><path d="M34883.7 6518.1c.3 4.4.5 8.8.7 13.2 66.2 120.2 344.5 604.2 636.7 796.3 334.5 220 583.7 747.6 662.6 1192.1l.1.5c.2-9.1.3-18.1.3-27.2.1-506.1-352.9-1027.3-552.2-1228.8-177.1-178.9-634.6-633.4-748.2-746.1" style="fill:#68ae3e;fill-opacity:1;fill-rule:nonzero;stroke:none" transform="matrix(.13333 0 0 -.13333 0 3282.053)"/><path d="M34869.9 6504.3c1.1 2.1 6.1 11.6 14.5 27-.2-4.4-.4-8.8-.7-13.2l-13.8-13.8" style="fill:#7c4b1f;fill-opacity:1;fill-rule:nonzero;stroke:none" transform="matrix(.13333 0 0 -.13333 0 3282.053)"/><path d="m35601.1 9045.5-.8 2.6c-1 3-2.1 5.9-3.1 8.7 0 0 .2-.6.7-1.6.1-.2.2-.5.3-.8.8-1.9 1.5-4 2.1-6.3l.8-2.6" style="fill:#d9d5d4;fill-opacity:1;fill-rule:nonzero;stroke:none" transform="matrix(.13333 0 0 -.13333 0 3282.053)"/><path d="M35597.9 9055.2c-.5 1-.7 1.6-.7 1.6l.7-1.6m-696.5-1715.9c0 1.7-.1 3.4-.2 5 48.2 94.9 293.1 570.8 501.9 847.8 227.2 301.5 249.3 695.2 198 853.4l-.8 2.6c-.6 2.3-1.3 4.4-2.1 6.3 8.3-18.4 61.4-144.2 61.3-334 0-192.2-54.5-449.8-265.1-727.7-355.6-469.4-464.8-615.5-493-653.4" style="fill:#68ae3e;fill-opacity:1;fill-rule:nonzero;stroke:none" transform="matrix(.13333 0 0 -.13333 0 3282.053)"/><path d="M34892.9 7327.7v.3c.7 1.4 3.6 7 8.3 16.3.1-1.6.2-3.3.2-5-5.8-7.9-8.1-11.1-8.5-11.6" style="fill:#7c4b1f;fill-opacity:1;fill-rule:nonzero;stroke:none" transform="matrix(.13333 0 0 -.13333 0 3282.053)"/><path d="M34566.1 9458.4c-.9 1.4-1.7 2.6-2.3 3.8-.7 1.1-1.2 1.8-1.7 2.7-1.1 1.7-2 3.1-2.5 4l-.6.9.6-.9c.6-.9 1.5-2.2 2.5-4 .6-.8 1.1-1.6 1.7-2.7.6-1.2 1.4-2.4 2.3-3.8" style="fill:#d9d5d4;fill-opacity:1;fill-rule:nonzero;stroke:none" transform="matrix(.13333 0 0 -.13333 0 3282.053)"/><path d="M34872.3 7544.5c-115.2 631.7-51.5 854.2-14.4 1127.2 33.8 248.9-242.4 707.2-291.8 786.7-.9 1.4-1.7 2.6-2.3 3.8-.6 1.1-1.1 1.9-1.7 2.7-1 1.8-1.9 3.1-2.5 4l-.6.9c13.6-14.2 358-382.9 358.2-904.1 0-49-3-99.4-9.7-150.9-37.1-289.1-46.9-499.9-46.9-641.8 0-143 9.9-216 11.7-228.5m-83.1-1752.8c-165.8 37.4-812.2 220.4-1298.7 884.2-562.7 767.5-287.9 828.6-745.8 1299.6l.4-.2c15.3-12.3 461.7-372.1 961-1360.3 0 0 403.3-591 1083.6-818.7-.2-1.6-.3-3.1-.5-4.6" style="fill:#68ae3e;fill-opacity:1;fill-rule:nonzero;stroke:none" transform="matrix(.13333 0 0 -.13333 0 3282.053)"/><path d="M34828.8 5783.7c-2.9.5-16.7 2.8-39.6 8 .2 1.5.3 3 .5 4.6 12.9-4.4 25.9-8.6 39.1-12.6" style="fill:#7c4b1f;fill-opacity:1;fill-rule:nonzero;stroke:none" transform="matrix(.13333 0 0 -.13333 0 3282.053)"/><path d="M34844.6 6411.9c-126.6 57.7-700.1 343.2-982.4 896-318.2 623.3-427.2 919.8-610.2 1068.2h.1c15.5-11 464.6-332.6 754-1033.8 259.3-628 729.4-878.4 838.6-929.5-.1-.3-.1-.6-.1-.9" style="fill:#68ae3e;fill-opacity:1;fill-rule:nonzero;stroke:none" transform="matrix(.13333 0 0 -.13333 0 3282.053)"/><path d="M34868.5 6401.3c-2.8 1.2-11.1 4.7-23.9 10.6 0 .3 0 .6.1.9 14.9-6.9 23.1-10.2 23.1-10.2l.7-1.3" style="fill:#7c4b1f;fill-opacity:1;fill-rule:nonzero;stroke:none" transform="matrix(.13333 0 0 -.13333 0 3282.053)"/><path d="M34888.4 7123.1c-77.8 69.8-438.7 412.5-682.7 954.7-274.4 609.8-366.1 815.1-475 858.9l-.3.1s25.8-3.3 67.3-21.2c-39 15-63.6 20.5-67 21.1 108.9-43.8 200.6-249.1 475-858.9 244-542.2 604.9-884.9 682.7-954.7m0 1.6c-5.6 6.4-12.8 15.2-21.4 27.2 8.5-10.3 15.7-18.7 21.4-25.3v-1.9" style="fill:#d9d5d4;fill-opacity:1;fill-rule:nonzero;stroke:none" transform="matrix(.13333 0 0 -.13333 0 3282.053)"/><path d="M34888.4 7123.1c-77.8 69.8-438.7 412.5-682.7 954.7-274.4 609.8-366.1 815.1-475 858.9 3.4-.6 28-6.1 67-21.1 1.2-.5 2.5-1 3.7-1.6 111.6-49.5 328.6-202.4 462.6-664.8 154.4-532.7 491.6-964.6 603-1097.3 8.6-12 15.8-20.8 21.4-27.2v-1.6" style="fill:#68ae3e;fill-opacity:1;fill-rule:nonzero;stroke:none" transform="matrix(.13333 0 0 -.13333 0 3282.053)"/><path d="m34903.1 7109.9-.1.1-.2.1-.4.3-.2.2-.5.5-1 .9-1.1 1-1.4 1.3c-2.4 2.2-5.7 5.1-9.8 8.8v3.5c8.3-9.5 13.4-15.2 14.7-16.6v-.1" style="fill:#7c4b1f;fill-opacity:1;fill-rule:nonzero;stroke:none" transform="matrix(.13333 0 0 -.13333 0 3282.053)"/><path d="M35449.1 1810.6h-1348.2c-84.2 0-154.8 63.3-163.9 147L33806.6 3154c-10.6 97.5 65.8 182.7 163.9 182.7h1609c98.1 0 174.5-85.2 163.9-182.7L35613 1957.6c-9.1-83.7-79.7-147-163.9-147" style="fill:#d58a18;fill-opacity:1;fill-rule:nonzero;stroke:none" transform="matrix(.13333 0 0 -.13333 0 3282.053)"/><path d="M35836.2 2926.8h-2102.4c-56.3 0-102 45.6-102 102v205.9c0 56.4 45.7 102 102 102h2102.4c56.4 0 102-45.6 102-102v-205.9c0-56.4-45.6-102-102-102" style="fill:#f9a70d;fill-opacity:1;fill-rule:nonzero;stroke:none" transform="matrix(.13333 0 0 -.13333 0 3282.053)"/><path d="M19722.8 6936.1s14.6 373.1-88.1 436.4c-206.8 127.4-424.6-7.2-199.5-436.4h287.6" style="fill:#e9d5ba;fill-opacity:1;fill-rule:nonzero;stroke:none" transform="matrix(.13333 0 0 -.13333 0 3282.053)"/><path d="m19651.3 2228.6 81.2-375.5c4.7-21.9-12-42.5-34.3-42.5h-1016.8c-37.9 0-48.9 51.9-14.2 67.1 164.6 72.3 566.6 196.1 652.9 337.7 5.8 9.5 15.7 15.7 26.8 16.7l267 24.1c17.6 1.5 33.6-10.3 37.4-27.6m955 415.2 252.6-289.5c14.7-16.9 10.1-43-9.5-53.8l-890.1-491.5c-33.2-18.3-67.9 21.8-44.9 52 109.2 142.8 401.2 445.5 408.4 611.2.5 11.1 6.1 21.3 15.3 27.6l222.1 150c14.7 9.9 34.4 7.4 46.1-6" style="fill:#1a1817;fill-opacity:1;fill-rule:nonzero;stroke:none" transform="matrix(.13333 0 0 -.13333 0 3282.053)"/><path d="M22391.6 5038s39-960.4-2334.9-1244l682-1235.6-529.9-217.5-751.5 1586-46.1 328.1 2980.4 783" style="fill:#1b3348;fill-opacity:1;fill-rule:nonzero;stroke:none" transform="matrix(.13333 0 0 -.13333 0 3282.053)"/><path d="M20978.8 5164.8 19318.1 4685c-185.8-53.6-305.6-233.7-283.3-425.8l238-2054.5s295.1-94.6 451.9 44.9l-156.8 1828s2708.1-341.6 2832.3 984.6l-1421.4 102.6" style="fill:#234465;fill-opacity:1;fill-rule:nonzero;stroke:none" transform="matrix(.13333 0 0 -.13333 0 3282.053)"/><path d="M20772.7 8837.8s-140.4-616.6 149.6-848.6c0 0 89-15.2 200.2 36.7l62.3-293.1 473.1 36.7-116 952.3-228.9 323.6h-348l-192.3-207.6" style="fill:#e9d5ba;fill-opacity:1;fill-rule:nonzero;stroke:none" transform="matrix(.13333 0 0 -.13333 0 3282.053)"/><path d="M20763.6 8697.4s-146.5 164.8 0 302.2c0 0-33.6 320.5 497.5 219.8 0 0 262.5 36.6 360.2-146.5 0 0 283.9-421.3 0-979.9 0 0-518.9-100.7-570.8 308.3 0 0 6.1 222.3-140.4 259.2 0 0-82.4-33.3-146.5 36.9" style="fill:#773d19;fill-opacity:1;fill-rule:nonzero;stroke:none" transform="matrix(.13333 0 0 -.13333 0 3282.053)"/><path d="M21746.7 3623.3c0-73.4-154.2-170.9-338.5-170.9s-328.9 97.5-328.9 170.9 144.6 95 328.9 95c184.3 0 338.5-21.6 338.5-95" style="fill:#2f2d2e;fill-opacity:1;fill-rule:nonzero;stroke:none" transform="matrix(.13333 0 0 -.13333 0 3282.053)"/><path d="M22142.9 3736h-1459.8c-141.4 0-257.2 115.7-257.2 257.2s115.8 257.2 257.2 257.2h1459.8c141.5 0 257.3-115.7 257.3-257.2s-115.8-257.2-257.3-257.2" style="fill:#42a0d0;fill-opacity:1;fill-rule:nonzero;stroke:none" transform="matrix(.13333 0 0 -.13333 0 3282.053)"/><path d="M22165.5 3623.3h-1466.6c-27.7 0-50.4 22.7-50.4 50.4v11.8c0 27.8 22.7 50.5 50.4 50.5h1466.6c27.7 0 50.4-22.7 50.4-50.5v-11.8c0-27.7-22.7-50.4-50.4-50.4m-749.3-1215.5c-45.9 0-83.5 37.6-83.5 83.5v992.4c0 45.9 37.6 83.5 83.5 83.5s83.5-37.6 83.5-83.5v-992.4c0-45.9-37.6-83.5-83.5-83.5" style="fill:#2f2d2e;fill-opacity:1;fill-rule:nonzero;stroke:none" transform="matrix(.13333 0 0 -.13333 0 3282.053)"/><path d="m22060.5 2028.4-653.7 377.4c-37.4 21.6-50.4 69.8-28.8 107.2 21.6 37.4 69.9 50.4 107.3 28.8l653.7-377.4c37.4-21.6 50.3-69.9 28.7-107.3-21.6-37.4-69.8-50.3-107.2-28.7" style="fill:#2f2d2e;fill-opacity:1;fill-rule:nonzero;stroke:none" transform="matrix(.13333 0 0 -.13333 0 3282.053)"/><path d="m20770.1 2028.4 653.7 377.4c37.4 21.6 50.4 69.8 28.8 107.2-21.6 37.4-69.9 50.4-107.3 28.8l-653.7-377.4c-37.4-21.6-50.3-69.9-28.7-107.3 21.6-37.4 69.8-50.3 107.2-28.7m1660.5 6.4c0-123.9-100.4-224.2-224.2-224.2-123.8 0-224.1 100.3-224.1 224.2 0 123.8 100.3 224.1 224.1 224.1s224.2-100.3 224.2-224.1" style="fill:#2f2d2e;fill-opacity:1;fill-rule:nonzero;stroke:none" transform="matrix(.13333 0 0 -.13333 0 3282.053)"/><path d="M22338.3 2029.7c0-70-56.8-126.8-126.8-126.8s-126.8 56.8-126.8 126.8 56.8 126.8 126.8 126.8 126.8-56.8 126.8-126.8" style="fill:#58595b;fill-opacity:1;fill-rule:nonzero;stroke:none" transform="matrix(.13333 0 0 -.13333 0 3282.053)"/><path d="M20908.3 2028.1c0-123.8-100.4-224.2-224.2-224.2-123.8 0-224.2 100.4-224.2 224.2 0 123.8 100.4 224.2 224.2 224.2 123.8 0 224.2-100.4 224.2-224.2" style="fill:#2f2d2e;fill-opacity:1;fill-rule:nonzero;stroke:none" transform="matrix(.13333 0 0 -.13333 0 3282.053)"/><path d="M20810.9 2028.1c0-70-56.8-126.8-126.8-126.8s-126.7 56.8-126.7 126.8 56.7 126.8 126.7 126.8 126.8-56.8 126.8-126.8" style="fill:#58595b;fill-opacity:1;fill-rule:nonzero;stroke:none" transform="matrix(.13333 0 0 -.13333 0 3282.053)"/><path d="m21076.8 7705.8 21.3 125.4s323.5 150.8 664.8 70l53.4-126.9s1007-59.8 575.3-2736.3c0 0-785.6-423.1-1536.8 112.2 0 0-189.9 1924.7-224.5 2343.7l446.5 211.9" style="fill:#f9a70d;fill-opacity:1;fill-rule:nonzero;stroke:none" transform="matrix(.13333 0 0 -.13333 0 3282.053)"/><path d="M20630.3 7493.9s-835.3-1212.4-665.8-1597.1c0 0 95.4-182.6 321.6-78.3 226.1 104.4 899.2 1120.8 344.2 1675.4" style="fill:#f9a70d;fill-opacity:1;fill-rule:nonzero;stroke:none" transform="matrix(.13333 0 0 -.13333 0 3282.053)"/><path d="M22622.9 5691.1h-1161.4c-105.6 0-192 86.3-192 191.9v1161.4c0 105.6 86.4 191.9 192 191.9h1161.4c105.6 0 191.9-86.3 191.9-191.9V5883c0-105.6-86.3-191.9-191.9-191.9" style="fill:#42a0d0;fill-opacity:1;fill-rule:nonzero;stroke:none" transform="matrix(.13333 0 0 -.13333 0 3282.053)"/><path d="M22686 5691.1h-1161.4c-105.6 0-191.9 86.3-191.9 191.9v1161.4c0 105.6 86.3 191.9 191.9 191.9H22686c105.6 0 192-86.3 192-191.9V5883c0-105.6-86.4-191.9-192-191.9" style="fill:#3587aa;fill-opacity:1;fill-rule:nonzero;stroke:none" transform="matrix(.13333 0 0 -.13333 0 3282.053)"/><path d="M22505.1 6430.5c0-187.2-151.7-339-338.9-339s-339 151.8-339 339 151.8 339 339 339 338.9-151.8 338.9-339" style="fill:#2f2d2e;fill-opacity:1;fill-rule:nonzero;stroke:none" transform="matrix(.13333 0 0 -.13333 0 3282.053)"/><path d="m21437.2 3576.9-48.4 92.8 24.2-46.4-24.6 46.2c1.8.9 182.2 102.4 361.1 490 166.2 360.3 364.3 1046.7 364.3 2271h104.7c0-553.8-39.9-1047.2-118.6-1466.6-63.3-337.3-151.8-628.1-263-864.4-193.5-411.3-391.3-518.2-399.7-522.6" style="fill:#2f2d2e;fill-opacity:1;fill-rule:nonzero;stroke:none" transform="matrix(.13333 0 0 -.13333 0 3282.053)"/><path d="m20016.3 5836-584.7 1114.3s91.8 167.3 254.9 101l739.4-796.7-409.6-418.6" style="fill:#f9a70d;fill-opacity:1;fill-rule:nonzero;stroke:none" transform="matrix(.13333 0 0 -.13333 0 3282.053)"/><path d="m14168.7 7689.8 242.6-582.4s331.1-300.8 606.5-521c146.5-117.1 277.2-211.4 334.3-225.6 164.3-41.1 1097.6 328.5 1194.6 374.4 97.1 45.8 138.2 2.7 309.9 0s440.5 319.9 455.5 402.1c14.9 82.1-500.3 7.4-500.3 7.4s104.5 186.7 44.8 234.8c-59.8 48.2-313.6-264.6-421.9-358-108.2-93.3-940.7-171.7-1034.1-182.9-16-1.9-57.5 28.9-115.2 81.3-276.9 251.6-927.2 1000.7-927.2 1000.7l-189.5-230.8" style="fill:#fde6b5;fill-opacity:1;fill-rule:nonzero;stroke:none" transform="matrix(.13333 0 0 -.13333 0 3282.053)"/><path d="m14168.7 7689.8 242.6-582.4s331.1-300.8 606.5-521c74.7 140.3 183.5 256.4 267.6 333.5-276.9 251.6-927.2 1000.7-927.2 1000.7l-189.5-230.8" style="fill:#bb2723;fill-opacity:1;fill-rule:nonzero;stroke:none" transform="matrix(.13333 0 0 -.13333 0 3282.053)"/><path d="M16114.9 2000.5s-31.6-300.7 32.3-313.9c63.9-13.1 1079.2 61.4 1132.5 133.9 53.4 72.4-65.8 112-65.8 112l-673.2 292.2-425.8-224.2m-749.8 329.5s-153.7-175.3-119.3-212c34.4-36.7 706.6-441.6 772.5-419.7 65.8 21.8 8.4 99.8 8.4 99.8l-293.7 483.5-367.9 48.4" style="fill:#1a1817;fill-opacity:1;fill-rule:nonzero;stroke:none" transform="matrix(.13333 0 0 -.13333 0 3282.053)"/><path d="M14688.1 5487.1s1571.1-679.9 1521.1-1193.8c-49.5-508.8-387.6-2120-387.6-2120s-310.4-72.3-490.4 174.5c0 0 209.8 1552.2 175.2 1655-34.6 102.7-1646.5 926-1646.5 926l-43.9 477.4 872.1 80.9" style="fill:#1d3851;fill-opacity:1;fill-rule:nonzero;stroke:none" transform="matrix(.13333 0 0 -.13333 0 3282.053)"/><path d="M13271.5 3761.3h1039.8v142.6h-1038.4c-29.1.8-584.4 24.5-584.4 679.9 0 343.4 106.6 477 219.4 618.4 124.7 156.4 253.7 318 253.7 721.2H13019c0-353.3-108.1-488.8-222.6-632.2-123.1-154.4-250.5-314.1-250.5-707.4 0-416.2 197.3-618.4 362.9-714.7 177.7-103.5 354.7-107.6 362.1-107.8h.6" style="fill:#2f2d2e;fill-opacity:1;fill-rule:nonzero;stroke:none" transform="matrix(.13333 0 0 -.13333 0 3282.053)"/><path d="M13934.4 3875.5c0-82.9 174.2-193 382.4-193 208.1 0 371.3 110.1 371.3 193s-163.2 107.3-371.3 107.3c-208.2 0-382.4-24.4-382.4-107.3" style="fill:#2f2d2e;fill-opacity:1;fill-rule:nonzero;stroke:none" transform="matrix(.13333 0 0 -.13333 0 3282.053)"/><path d="M13487 4002.8h1648.6c159.7 0 290.4 130.7 290.4 290.5 0 159.7-130.7 290.5-290.4 290.5H13487c-159.8 0-290.5-130.8-290.5-290.5 0-159.8 130.7-290.5 290.5-290.5" style="fill:#42a0d0;fill-opacity:1;fill-rule:nonzero;stroke:none" transform="matrix(.13333 0 0 -.13333 0 3282.053)"/><path d="M13461.5 3875.5h1656.2c31.3 0 57 25.7 57 57v13.3c0 31.4-25.7 57-57 57h-1656.2c-31.3 0-56.9-25.6-56.9-57v-13.3c0-31.3 25.6-57 56.9-57m846.2-1372.7c51.9 0 94.3 42.5 94.3 94.4v1120.6c0 51.9-42.4 94.4-94.3 94.4s-94.3-42.5-94.3-94.4V2597.2c0-51.9 42.4-94.4 94.3-94.4" style="fill:#2f2d2e;fill-opacity:1;fill-rule:nonzero;stroke:none" transform="matrix(.13333 0 0 -.13333 0 3282.053)"/><path d="m13580.1 2074.4 738.2 426.2c42.3 24.4 56.9 78.9 32.5 121.1-24.4 42.2-78.9 56.8-121.1 32.5l-738.3-426.3c-42.2-24.3-56.8-78.8-32.4-121.1 24.4-42.2 78.9-56.8 121.1-32.4" style="fill:#2f2d2e;fill-opacity:1;fill-rule:nonzero;stroke:none" transform="matrix(.13333 0 0 -.13333 0 3282.053)"/><path d="m15037.3 2074.4-738.2 426.2c-42.3 24.4-56.9 78.9-32.5 121.1 24.4 42.2 78.9 56.8 121.1 32.5l738.3-426.3c42.2-24.3 56.8-78.8 32.4-121.1-24.3-42.2-78.9-56.8-121.1-32.4m-1875.2 7.2c0-139.8 113.4-253.2 253.2-253.2 139.8 0 253.1 113.4 253.1 253.2 0 139.8-113.3 253.1-253.1 253.1s-253.2-113.3-253.2-253.1" style="fill:#2f2d2e;fill-opacity:1;fill-rule:nonzero;stroke:none" transform="matrix(.13333 0 0 -.13333 0 3282.053)"/><path d="M13272.1 2081.6c0-79.1 64.1-143.2 143.2-143.2 79 0 143.1 64.1 143.1 143.2 0 79-64.1 143.1-143.1 143.1-79.1 0-143.2-64.1-143.2-143.1" style="fill:#58595b;fill-opacity:1;fill-rule:nonzero;stroke:none" transform="matrix(.13333 0 0 -.13333 0 3282.053)"/><path d="M14888.8 2081.6c0-139.8 113.3-253.2 253.2-253.2 139.8 0 253.1 113.4 253.1 253.2 0 139.8-113.3 253.1-253.1 253.1-139.9 0-253.2-113.3-253.2-253.1" style="fill:#2f2d2e;fill-opacity:1;fill-rule:nonzero;stroke:none" transform="matrix(.13333 0 0 -.13333 0 3282.053)"/><path d="M14998.8 2081.6c0-79.1 64.1-143.2 143.2-143.2 79 0 143.1 64.1 143.1 143.2 0 79-64.1 143.1-143.1 143.1-79.1 0-143.2-64.1-143.2-143.1" style="fill:#58595b;fill-opacity:1;fill-rule:nonzero;stroke:none" transform="matrix(.13333 0 0 -.13333 0 3282.053)"/><path d="M12547.7 6970.9c69-206.5 236.9-823 7.3-1384.4-14.6-35.8 11.8-75 50.4-75h624.5c19 0 36.7 9.9 46.5 26.2 55.4 92.4 204.3 454.3-9.1 1461.8-5.3 25.2-27.5 43.2-53.3 43.2h-614.7c-37.2 0-63.4-36.4-51.6-71.8" style="fill:#3587aa;fill-opacity:1;fill-rule:nonzero;stroke:none" transform="matrix(.13333 0 0 -.13333 0 3282.053)"/><path d="M12678.3 6959.2c70.6-215.5 226.5-812.2 8.7-1359.8-16.8-42.1 13.8-87.9 59.1-87.9h605.2c22.7 0 43.8 12 55.1 31.7 57.5 100.5 196.3 465.9-10.7 1448.9-6.3 29.5-32.3 50.6-62.5 50.6H12739c-43.4 0-74.2-42.2-60.7-83.5" style="fill:#42a0d0;fill-opacity:1;fill-rule:nonzero;stroke:none" transform="matrix(.13333 0 0 -.13333 0 3282.053)"/><path d="M13229.9 5511.5s-318.1-981.8 1059.7-1072.7c0 0 1208.5-127.9 1225-301.3 16.6-173.4 535.3-2123.8 535.3-2123.8s124.5-40.2 316.1 67.9c83.1 46.9 217.1 148.5 217.1 148.5s-341.9 2222-494.7 2353.7c-152.7 131.6-1708.9 858.1-1708.9 858.1l-1149.6 69.6" style="fill:#234465;fill-opacity:1;fill-rule:nonzero;stroke:none" transform="matrix(.13333 0 0 -.13333 0 3282.053)"/><path d="M14576.5 9066.1s401.9 263.9 67 339.1c-238.4 53.5-251.1-54.4-351.6 0-100.4 54.4-213.4 113-355.8 0-142.3-113-192.5-73.5-217.6-137.2-25.1-63.7-67-235.3 0-432.1 0 0-53.2-253.7 97.5-329.1l425.7 266.4 334.8 292.9" style="fill:#1a1817;fill-opacity:1;fill-rule:nonzero;stroke:none" transform="matrix(.13333 0 0 -.13333 0 3282.053)"/><path d="M14639.8 9113.1s109.7-753.9-113.2-796.2c0 0-299.2 5.2-310.8-75.4-11.6-80.6-87.5-251.3-87.5-251.3s-265.5 42.6-374.6 147l23.4 179.7s87.3 981.2 862.7 796.2" style="fill:#fde6b5;fill-opacity:1;fill-rule:nonzero;stroke:none" transform="matrix(.13333 0 0 -.13333 0 3282.053)"/><path d="M14370.1 9189.8s-306.1-531.7-554.1-683l56.2 597.7 222.9 151.7 275-66.4" style="fill:#1a1817;fill-opacity:1;fill-rule:nonzero;stroke:none" transform="matrix(.13333 0 0 -.13333 0 3282.053)"/><path d="M14007.7 8816.5c39.7-68.8 119.1-97.3 177.4-63.6 58.3 33.6 73.4 116.7 33.6 185.5-39.7 68.8-119.1 97.3-177.4 63.6-58.3-33.6-73.4-116.7-33.6-185.5" style="fill:#fde6b5;fill-opacity:1;fill-rule:nonzero;stroke:none" transform="matrix(.13333 0 0 -.13333 0 3282.053)"/><path d="M14150.2 8041.9s-207.9.5-396.5 95.3c0 0-344.6-109.3-440.6-253.4-96.1-144-322.5-543.3-83.2-2372.3 0 0 876.7-384.5 1458.2-24.4 0 0-123 2106.6-198.7 2256.7-48.4 96.1-138.2 228-339.2 298.1" style="fill:#bb2723;fill-opacity:1;fill-rule:nonzero;stroke:none" transform="matrix(.13333 0 0 -.13333 0 3282.053)"/><path d="M13316.1 6425.6c1.7-7 3.5-14 5.3-21.1 0 0 59.9-396.6 156-502.9 96.1-106.3 744.2-541.9 854-708.3 109.7-166.5 211.5-381.7 329.3-364.8 198.3 28.3 389.6 166.4 294 340-95.7 173.5-350.6 92-460.4 198.3-109.8 106.3-630.4 697.7-665.8 839.4-11.2 44.5-22 185.3-31.5 357.6-20.8 376.6-35.9 903.2-35.9 903.2s-33 353.9-439.7 336.4c0 0-283.9-276.2-5.3-1377.8" style="fill:#fde6b5;fill-opacity:1;fill-rule:nonzero;stroke:none" transform="matrix(.13333 0 0 -.13333 0 3282.053)"/><path d="M13307.5 6431.5c199.1 106.1 385.4 137.8 506.9 145.8-21.9 396.9-37.8 952-37.8 952s-34.9 373.1-463.5 354.6c0 0-299.3-291.2-5.6-1452.4" style="fill:#bb2723;fill-opacity:1;fill-rule:nonzero;stroke:none" transform="matrix(.13333 0 0 -.13333 0 3282.053)"/><path d="M15201 6056.9h1143.3c22.2 0 40.4 18.2 40.4 40.3 0 22.2-18.2 40.4-40.4 40.4H15201c-22.2 0-40.3-18.2-40.3-40.4 0-22.1 18.1-40.3 40.3-40.3m1172.4 142.9 250.3 1332.8c4.7 24.9 26.4 42.9 51.6 42.9h864.7c32.9 0 57.7-29.8 51.7-62.1l-247.1-1332.9c-4.6-24.9-26.3-42.9-51.6-42.9h-868c-32.9 0-57.7 29.9-51.6 62.2" style="fill:#d8d7d6;fill-opacity:1;fill-rule:nonzero;stroke:none" transform="matrix(.13333 0 0 -.13333 0 3282.053)"/><path d="m16396.4 6199.8 250.3 1332.8c4.6 24.9 26.3 42.9 51.6 42.9h864.7c32.9 0 57.7-29.8 51.7-62.1l-247.1-1332.9c-4.6-24.9-26.3-42.9-51.7-42.9H16448c-32.9 0-57.7 29.9-51.6 62.2m-19.3-142.9h945.7c20.3 0 36.8 16.6 36.8 36.8v7.1c0 20.2-16.5 36.8-36.8 36.8h-945.7c-20.3 0-36.8-16.6-36.8-36.8v-7.1c0-20.2 16.5-36.8 36.8-36.8" style="fill:#ebebea;fill-opacity:1;fill-rule:nonzero;stroke:none" transform="matrix(.13333 0 0 -.13333 0 3282.053)"/><path d="M16177.1 6079.6h101.1c10.3 0 18.8 8.4 18.8 18.8 0 10.3-8.5 18.8-18.8 18.8h-101.1c-10.3 0-18.8-8.5-18.8-18.8 0-10.4 8.5-18.8 18.8-18.8m-172.2 0h101.1c10.4 0 18.8 8.4 18.8 18.8 0 10.3-8.4 18.8-18.8 18.8h-101.1c-10.3 0-18.7-8.5-18.7-18.8 0-10.4 8.4-18.8 18.7-18.8" style="fill:#b5b5b4;fill-opacity:1;fill-rule:nonzero;stroke:none" transform="matrix(.13333 0 0 -.13333 0 3282.053)"/><path d="M24253.6 13808.6c-316.5 213.7-646.7 467.7-989.1 761.7-812.4 697.6-1521.3 1473.9-2004.2 2030.6 640.1 668.6 1209 1223.4 1727 1677.9l155.5 1518.8-1456 149.2c-543.4-471.4-1135.6-1039.8-1801.5-1728.3L18435 16663.4c-154.4-169-301.7-330.9-440.2-483.1-945.3-1038.3-1603.7-1752.5-2146.4-2236.4l1263.4-129.4-176-1718c751.2 607.9 1519.4 1451.6 2621.1 2661.5 85.4 93.9 171.6 188.4 259.2 284.7 518.3-588.9 1238.6-1359.5 2071.9-2075.2 321.7-276.4 640.1-526.7 952.7-749.1l-22.9 1569.3 1435.8 20.9" style="fill:#4066b9;fill-opacity:1;fill-rule:nonzero;stroke:none" transform="matrix(.13333 0 0 -.13333 0 3282.053)"/><path d="m29757.5 19657.1-1451.3-258.1c-531.2 408.6-1139.3 648.6-1701.2 648.6-1099.3 0-2154.5-484.8-3617.7-1768.8l155.5 1518.8-1456 149.2c468.9 406.6 901.5 741.1 1313.5 1017.7 1215.2 815.7 2360.6 1195.8 3604.7 1195.8 989.9 0 2004.6-360.7 2887-1010.4l265.5-1492.8" style="fill:#3baaa5;fill-opacity:1;fill-rule:nonzero;stroke:none" transform="matrix(.13333 0 0 -.13333 0 3282.053)"/><path d="M31879.5 16555.3c0-755.3-149.8-1492.6-445.2-2191.7-139.2-329.5-307.5-643.2-503.8-938.7l-1365.6-159-194.1 1666.2c252.3 489.8 396 1042.8 396 1623.2 0 1175.3-638.4 2211.4-1460.6 2843.7l1451.3 258.1-265.5 1492.8c257.4-189.3 503.5-403.4 734.6-640.3 504.7-517.5 904.5-1109.8 1189-1760.1 307.7-704.2 463.9-1442.5 463.9-2194.2" style="fill:#f57c2a;fill-opacity:1;fill-rule:nonzero;stroke:none" transform="matrix(.13333 0 0 -.13333 0 3282.053)"/><path d="M30930.5 13424.9c-202.5-305.6-434.7-592-695-857.1-512.9-522.1-1107.3-933.5-1766.8-1222.7-689.5-302.3-1416.1-455.7-2159.7-455.7-753.2 0-1561.2 224.4-2402.2 666.7-227.6 119.8-460 256.8-695.8 410.6-122.4 79.2-245.9 163.3-370.3 251.7l-22.9 1569.3 1435.8 20.9h.4c206.7-139.1 407.3-261.1 601.1-364.6 544.3-291.8 1034.4-441.9 1453.9-441.9 1309.6 0 2477.3 794.3 3061.8 1930l194.1-1666.2 1365.6 159m-13818.7 389.6-176-1718c-91-73.6-181.8-144-273.1-211.1-949.8-698-1877.2-996-3101.1-996-1240.6 0-2578.5 528-3578.89 1412-292.29 258.6-553 542.6-780.17 849.7l1766.36-136.4 92.2 1194.5c106.9-124.2 215.8-232 320.8-324.8 735.9-650.6 1608.4-882.3 2179.7-882.3 898.9 0 1458 202.8 2286.8 941.8l1263.4-129.4" style="fill:#d7e1c8;fill-opacity:1;fill-rule:nonzero;stroke:none" transform="matrix(.13333 0 0 -.13333 0 3282.053)"/><path d="M10233.2 16555.3c0-1094.2 399.4-1850.2 827.9-2346.1l-92.2-1194.5-1766.36 136.4c-216.28 291.8-401.84 604.6-556.27 936.5-348.92 751.2-525.77 1581.5-525.77 2467.7 0 885.2 169.23 1708.7 502.9 2447.7 307.98 682.4 749.25 1280 1311.18 1776.2 86.22 76.2 175.12 149.6 266.32 220.2l22-1664.5 1314.7 17.5c-730.7-548.2-1304.4-1448.4-1304.4-2797.1" style="fill:#f57c2a;fill-opacity:1;fill-rule:nonzero;stroke:none" transform="matrix(.13333 0 0 -.13333 0 3282.053)"/><path d="m15981.2 20520.4 21.8-1494.5c-908.9 670.4-1744.4 1021.7-2441.4 1021.7-604.8 0-1376-209.3-2024-695.2l-1314.7-17.5-22 1664.5c957.5 741.2 2163.9 1160.9 3360.7 1160.9 1236.9 0 2559.7-543.9 3937.3-1617.6l-1517.7-22.3" style="fill:#3baaa5;fill-opacity:1;fill-rule:nonzero;stroke:none" transform="matrix(.13333 0 0 -.13333 0 3282.053)"/><path d="M19885.3 18218.5 18435 16663.4c-444.6 524.9-1115.4 1275.2-1897.3 1938.4-180.8 153.1-359.2 294.7-534.7 424.1l-21.8 1494.5 1517.7 22.3c134.6-104.8 269.6-214.6 405.1-329.6 808.7-685.6 1495-1430.9 1981.3-1994.6m2932.5-4430.8 22.9-1569.3c-312.6 222.4-631 472.7-952.7 749.1-833.3 715.7-1553.6 1486.3-2071.9 2075.2l1444.2 1558.2c482.9-556.7 1191.8-1333 2004.2-2030.6 342.4-294 672.6-548 989.1-761.7l-1435.8-20.9" style="fill:#58c490;fill-opacity:1;fill-rule:nonzero;stroke:none" transform="matrix(.13333 0 0 -.13333 0 3282.053)"/><path d="M11527.3 20757.8c-59.6-30.9-93.6-73.7-102-126-8.4-52.5 9.1-109.1 49.7-170.8 85.1-128.3 176.4-161.6 285.5-105.7 46.1 23.4 96.8 61.4 154.9 113.2 17.5-36.8 34.8-73.7 51.8-110.6-44.5-45.1-98.3-83.1-162.2-115.9-91.7-47.2-173.9-60.8-254.4-39.1-80.3 21.6-154.2 76.8-221.4 168.7-42.2 57.8-67.5 116.3-73.5 176.6-6 60.1 8 118 43.4 172.6 35.3 54.4 90 102.2 163.3 140.4 74.7 38.9 159.9 61.9 252.7 67.1 1-42.8 2.3-85.6 4-128.3-34.3-2-68-6.1-101.2-12-33.1-6-63.4-16.1-90.6-30.2m590.9-.1c28.8-71.5 65.3-120.2 109.4-146.9 44.2-26.7 95.6-31.2 157-14.5 122.2 32.7 168.2 119.4 127.5 269.5-41 149.5-136.7 210.3-276.3 171.7-69.6-19.5-114.1-54.3-133.3-101.7-19.4-47.4-13.2-106.7 15.7-178.1zm571.8 141.3c25.2-111.5 10-202.1-37.6-273-47.8-71.1-125-117.8-232.5-146.7-107.6-29.1-197.2-27.3-276.8 9.1-79.3 36.3-143.6 104.9-191.8 209.1-48.1 104-56 195.7-15.4 275.3 40.2 79.3 126 141.9 256.7 179 130.6 36.8 243.4 29.8 329.9-15.4 86.7-45.4 142.1-125.8 167.5-237.4m674.7 46.1c-6.3 147.8-97.8 226.8-265.8 220.1-33.1-1.4-66.1-3.3-99.1-5.5 24-148.5 44-297.1 60.1-445.8 23.6 1.5 47.4 2.6 71.1 3.5 158.8 5.5 239.8 75.6 233.7 227.7zm186.3-6.1c0-114-41.1-197.2-114.8-253.6-74.1-56.7-176.7-83.3-310.5-88.7-71.4-3-142.3-8.2-212.6-15.8-31.8 227-72.9 453.6-123.3 679.3 93.2 11.2 187.3 19.2 282.1 23.8 148 7.1 268.2-24.9 352.9-87.9 84.9-63.2 126.1-150.3 126.2-257.1m603.5-461.3c-149.9 41.4-300.1 71.9-449.3 92 19.2 228.8 29.2 459.4 30 691.2 177.8-21 356.4-54.1 534.6-99.9-5.1-40-10.5-80-16.2-119.8-109.4 28.5-219 52.1-328.5 71-3.2-50.8-6.8-101.4-10.9-152 98.2-17.3 196.5-38.6 294.7-64-6.1-39.7-12.5-79.4-19.2-118.9-95.3 25-190.7 46-286 63.1-5.6-59.2-11.8-118.3-18.6-177.3 97.8-17.9 195.7-40.2 293.5-66.9-7.8-39.6-15.8-79.1-24.1-118.5m3106-972.2 33.8-33.8c31.5-31.7 61.4-49.1 89.5-52.4 28.2-3.2 54.3 7.1 78.1 30.9 24.2 24.1 35.4 48.4 33.8 73.1-1.7 24.6-16.5 51-44.5 79.1l-46.7 46.8zm308.7-155.5c-52.2-52.1-108.4-75.6-168.6-70.6-60.2 5.1-120.4 37.7-180.4 97.9l-44 44.1-172.6-172.1-102.6 102.8 485.2 484.1 154.6-155c58.7-58.9 90.7-116.3 95.9-172.2 5.2-55.9-17.3-108.9-67.5-159m-242.5-424.6 485.2 484 102.7-102.9-400.3-399.3 196.3-196.8-84.9-84.7-299 299.7m821.5-420c72.2 136.9 113.2 214.2 122.8 232 9.6 17.8 17.6 31.5 23.7 41.2-35.6-20.9-126.4-69.8-272.6-146.8zm-142.2-261.1 80.5 150.4-176.5 176.9-150.6-80-110.6 110.8 658.1 314.8 125.4-125.8-315.7-657.9-110.6 110.8m600.9-602.3-130.4 130.7 156.5 577.3-3 2.9c-60.6-68.8-104.8-117-132.4-144.6l-228.4-227.8-91.7 91.9 485.2 484 129.5-129.7-153.2-573.3 2.3-2.3c59.8 66.2 102.7 112.3 128.8 138.4l229.7 229.1 92.3-92.6-485.2-484m127.7-2083.4 32.9 33.5c32.1 32.7 50.4 62.3 54.8 88.6 4.4 26.4-5.1 51-28.5 74-23.2 22.8-47.5 31-73 24.7-25.4-6.3-54.6-26.2-87.4-59.6l-30.9-31.5zm84.3-82.8 187.6-184.2-101.8-103.7-489 480.2 139.9 142.5c65.3 66.4 125.7 103.7 181.2 111.8 55.5 8.1 107.9-12 157.2-60.4 28.7-28.2 46.5-61.3 53.4-99.1 6.9-37.8 2.4-77.5-13.3-118.9 182.1-34.4 300.2-56.2 354.2-65.4l-112.9-115.1-302.3 67.5-54.2-55.2m806.4 445.9-276.5-281.6-489 480.2 276.5 281.6 85-83.4-174.8-178 107.4-105.4 162.6 165.6 84.9-83.4-162.5-165.6 126.1-123.8 174.7 177.9 85.6-84.1m100.2 102.1-489 480.1 101.8 103.7 403.4-396.1 194.7 198.4 85.7-84.1-296.6-302m656.5 668.6-276.5-281.7-489 480.2 276.5 281.6 85-83.4-174.7-177.9 107.3-105.5 162.6 165.6 85-83.4-162.6-165.6 126.1-123.8 174.7 177.9 85.6-84m131.7 540.8c-137.7 70.8-215.4 110.9-233.3 120.4-17.9 9.4-31.7 17.2-41.5 23.3 21.3-35.4 71.2-125.8 149.6-271.1zm262.4-139.5-151.2 78.9-175-178.3 81.6-149.8-109.7-111.7-321.6 654.8 124.5 126.7 661.1-308.9-109.7-111.7m317.8 595.3c44.2-43.4 63.4-93.4 57.6-150.2-5.8-56.7-36.5-113.4-92.1-170-51.3-52.2-106.4-88.7-165.4-109.6l-96.4 94.6c47.2 18.6 84.9 36.3 113.4 53.2 28.5 17 52 34.9 70.6 53.9 22.4 22.7 35.1 44.4 38.4 65.1 3.2 20.7-3.7 39.5-20.9 56.4-9.6 9.4-20.8 15.1-33.5 17.1-12.7 1.9-27.6 1.1-44.7-2.4-17.1-3.6-48.9-13.9-95.4-30.9-43.4-16.1-78.8-25.3-106.4-27.5-27.7-2.2-54.4.6-80.3 8.6-26 7.9-50.4 23.1-73.4 45.7-43.2 42.5-62.9 90.5-58.8 144.2 4 53.6 31.4 106.3 82.2 158 25 25.4 51.8 46.7 80.5 63.9 28.7 17.1 60.9 32.9 96.5 47.4l47.8-112.6c-36.3-15.6-65-29.8-86-42.7-20.9-12.9-39.5-27.6-55.7-44.1-19.3-19.6-29.5-39.2-30.7-58.6-1.1-19.5 5.7-36.4 20.4-50.9 9.1-9 19.2-14.7 30.1-17.1 11-2.4 24.2-2.2 39.6.9 15.5 3 48.4 13.7 98.9 32 66.7 24.3 119.4 34.1 158 29.5 38.6-4.7 73.8-22.6 105.7-53.9m499.4 236.9-276.6-281.6-489 480.1 276.6 281.7 84.9-83.5-174.7-177.9 107.4-105.4 162.6 165.5 84.9-83.4-162.6-165.6 126.1-123.8 174.8 178 85.6-84.1M24196 12266c24 191.1 55.3 379.8 93.7 565.7-1.3.9-2.7 1.7-4.1 2.5-50.4-97.3-84.5-161.9-103.2-193.3-54.3-91.4-108.5-182.8-162.7-274.2-47.1 28.2-94 57.3-140.4 87.3 122.9 192.5 246.1 384.9 369.6 577.1 60.9-39.3 122.7-77 185.1-112.9-35.7-181-64.5-364.6-86.3-550.2 1-.6 2-1.1 3.1-1.6 142 123 277.9 250.9 407.6 383.1 64.5-30 129.6-58.4 195.1-85.1-85.8-211.7-171.3-423.6-256.4-635.6-52.1 21.2-103.9 43.3-155.5 66.3 43.7 98.9 87.5 197.8 131.3 296.7 6.2 14 13.7 30 22.2 48.1 8.7 18 32.4 65.6 71.2 142.7-1.4.7-2.9 1.3-4.3 2-132.5-136.8-271.7-269-417.3-396.2-49.9 25-99.5 50.9-148.7 77.6m948.8-34.7c-23.4-72.9-24.9-133.2-3.1-180.5 21.7-47.3 66.6-81.2 133.8-99.8 135.5-36.8 220.6 24.3 253.8 174.4 33.5 151-10.6 238.9-131 271.8-60.7 16.7-111.6 11.8-154.2-15.7-42.4-27.5-75.9-77.3-99.3-150.2zm554.9-141.6c-20.8-111.4-68.9-191.5-147.9-237.1-78.7-45.6-183.1-53.6-308.2-19.2-125.2 34.5-211.7 95-256.9 174.8-45.5 80-46.7 174-7.7 281.1 39 107.3 98.7 177.8 176 214.9 77.5 37.2 167.8 39.2 275.2 9.6 107.4-29.5 183-77.5 229.5-149.3 46.2-71.7 60.8-162.9 40-274.8m848.4-424.1c-75.1.1-150.2 1.9-225.2 5.5-113.7 178.4-214.2 360.7-301.6 545.4l-4.5.6c-4.6-91.7-8.9-157-13.5-195.8-12.6-106.8-25.1-213.5-37.6-320.3-52.6 6.3-105.1 13.5-157.5 21.5 33.8 226 68 451.8 102.5 677.7 63.7-9.8 127.5-18.1 191.5-25 85.7-181.3 184.5-360.1 296.1-535 1.3 0 2.6-.1 3.8-.1-2.8 89.2-3.4 152.2-2.2 189.1 3.4 108.1 7 216.1 10.6 324.2 45.8-1.6 91.6-2.4 137.4-2.5-.3-228.4-.2-456.9.2-685.3m210.3 4.1c-10.1 228.2-20 456.4-29.4 684.7 50.8 2.1 101.6 5 152.3 8.9 17.7-227.8 35.7-455.5 54.1-683.2-59-4.5-117.9-8-177-10.4m705.5 79.9c-58.2-10.9-116.6-20.7-175.1-29.5-28.6 186-57 372-85.1 558-66.3-10-132.9-18.3-199.5-25.2-4.2 40.1-8.4 80.2-12.5 120.3 180.2 18.5 359.4 48.6 536.4 90.2 9.3-39.3 18.6-78.5 27.8-117.7-65.4-15.4-131.2-29.3-197.2-41.6 34.8-184.9 69.9-369.7 105.2-554.5m393.6 447.6c21.9-73.3 54.5-123.9 99-150.8 44.4-26.8 100.4-29.6 166.2-7 132.6 45.9 168.8 144.6 111.5 287.3-57.6 143.5-144.1 191-261.9 150.3-59.5-20.5-98.5-53.1-117.9-99.8-19.3-46.6-18.7-106.6 3.1-180zm538.6 196.7c45.9-103.6 51-197 11.1-279.5-39.6-82.3-121.8-147.9-244.4-190.1-122.7-42.1-227.5-40.8-309.2-.3-82.1 40.6-135.6 117.6-163.9 228-28.4 110.6-19.3 202.5 22.9 276.5 42.4 74.3 115 126.7 220.2 162.8 105.1 36.2 195 39.4 274.3 6.5 79-32.9 142.9-99.8 189-203.9m281.8 177.5c15.9 8.4 31.8 16.9 47.7 25.5 46.6 25.4 76.9 51.5 91 77.3 14.2 25.9 12.6 53-4.1 81.2-16.5 28-39.1 41.5-67.6 40.9-28.5-.5-65.2-13.6-110.7-38.3-14.3-7.7-28.7-15.4-43-23 28.9-54.5 57.8-109.1 86.7-163.6zm55.4-104.3c41.2-77.4 82.3-154.8 123.6-232.2-53.5-28.2-107.4-55.4-161.7-81.6-99.9 205.5-199.6 411-298.9 616.8 64.2 30.9 127.8 63.5 190.7 97.8 88 48 160.2 71.9 219.9 68.8 59.5-3.2 108.4-32.8 145.8-90.8 21.8-34 30.6-71 25.4-111.3-5.1-40.3-23.5-80.7-55.6-120.5 184.1-69.7 310.9-104.8 368.7-120.5-56.6-37.8-113.9-74.3-171.7-109.5-104.5 39-206.4 81.2-305.6 126.5-26.8-14.8-53.6-29.3-80.6-43.5m-3667 8183c-59 134.2-162.9 171.3-306.5 98-28.2-14.6-56.4-29.5-84.4-44.7 71.6-130.4 143-260.9 214.2-391.5 20.2 11 40.4 21.7 60.7 32.3 136.1 70.2 176.5 167.7 116 305.9zm159.9 70.8c41.3-105.1 38.9-198.3-1.5-280.6-40.7-82.5-117.3-149.3-231.7-209.2-61.1-32.1-121.5-66-181.1-101.8-117.9 195.7-236.1 391.2-354.7 586.4 78.7 47.3 158.5 91.9 239.3 133.7 126.2 65.2 239.6 83.1 332.9 58.5 93.6-24.6 158.1-88.5 196.8-187m666.5-161.2c-134.3-29.6-267.2-67-398.1-112.1-74.6 216-149.6 431.7-225 647.4 155.7 53.7 313.8 98.2 473.6 133.6 8.7-38.8 17.4-77.5 26.1-116.2-98.1-21.7-195.6-47-292.3-75.8 14.5-48 29-96 43.4-144.1 86.8 25.9 174.2 48.8 262.1 68.7 8.9-38.7 17.8-77.4 26.6-116.1-85.4-19.3-170.2-41.5-254.4-66.6 17-56.4 33.9-112.8 50.8-169.2 86.4 25.7 173.5 48.2 261.2 67.6 8.7-39.1 17.3-78.1 26-117.2m247.1 412c18.1 2.5 36.3 4.8 54.4 7 50.9 6.1 88.1 18.6 112 38.5 23.8 19.9 34.6 46.6 31.7 80.2-2.9 33.9-16 58.1-39.7 72.3-23.7 14.2-59.5 19-107.1 13.5-26.4-3.1-52.8-6.4-79.1-9.9 9.3-67.2 18.6-134.4 27.8-201.6zm370.2 141.3c3-73.7-21.4-130.9-70.8-172.9-49.7-42.1-120.4-66.8-214.3-77.7-23-2.6-46-5.5-68.9-8.6 11.1-80.5 22-161 32.9-241.5-50-6.8-100-14.6-149.7-23.4-40.2 224.9-80.8 449.7-121.8 674.4 89.2 15.9 178.9 29 268.8 39.2 102.5 11.6 182.4-.9 237.5-33.4 55.1-32.7 83.3-85.2 86.3-156.1m154.4-468.3c-.8 228.4-1.9 456.9-3.4 685.3 60 .2 120.1-.9 180.1-3.2-6.6-188.4-13.5-376.7-20.7-565 99.8-3.9 199.5-11.8 298.8-23.8-4.7-39.7-9.4-79.4-14.2-119.1a3609.81 3609.81 0 0 1-440.6 25.8m753.8 273c-14.1-75.2-8.7-134.9 14.8-179.2 23.7-44.4 65.4-73 126.2-87.8 121.2-30 203.4 24.3 247.9 172.2 44.5 147.4-1 243.3-138.3 277.3-68.4 16.7-124.6 8.6-166.7-22.5-42.3-31.1-69.8-84.7-83.9-160zm556.8-149c-37.1-107.3-95.7-178.8-172-218.4-76.5-39.5-165.7-44.2-272.6-18.1-106.9 26-183.2 71.2-232.5 141.5-49.1 70.2-67.9 161-51.8 274 16 112.8 61 194.7 139 242.6 77.7 47.6 183.6 58.7 312 27.5 128.3-31.4 217.7-90.3 264.8-169 47.4-78.9 50.2-172.7 13.1-280.1m408.7-102.1c91 61.2 185.2 119.6 282.4 175 59.3-30.9 118-63.2 176.1-97.1-154-71.8-301.2-151.3-441.2-237.7-39.2-79.8-78.5-159.5-117.9-239.3-46.3 23-93 44.9-140.1 65.8 35.3 79.9 70.6 159.8 105.8 239.7-22.5 164.4-54.7 329.8-96.7 495.4 62.2-22.8 124.1-47 185.4-72.7 19.5-110.1 34.8-219.9 46.2-329.1m1873.1-1849.5c-65.9-39-106.9-82.8-124.3-130.4-17.4-47.8-10.8-99 18.8-155.4 58.9-112.8 154.2-138.5 294.3-73.7 139.8 64.7 181.4 162.2 115.4 288.8-33.2 63.1-76.7 100.7-128.1 112.4-51.6 11.7-110.2-2.7-176.1-41.7zm260.1-521.1c-104.8-43.8-197.2-47.8-277.6-16.7-80.5 31.3-143.7 95.7-195.8 195.2-52.2 99.4-69.9 188.9-50.5 273.9 19.4 84.8 74.8 159.7 170.4 222 95.5 62.2 187.3 81.4 275.5 52.9 87.9-28.4 166.9-102.3 229-220.3 61.8-118 77-223.8 49.5-311.2-27.5-87.7-95.7-152-200.5-195.8m133.6-304.6c5.7-17.5 11.3-35.1 16.8-52.6 15.4-49.2 34.5-83.7 58.6-103.6 23.9-19.9 52.2-25.6 84.7-16.6 32.8 9.1 54.1 26.5 63.7 52.5 9.5 25.9 7.7 62.1-6.5 108-7.8 25.5-15.9 50.9-24.2 76.2-64.4-21.3-128.7-42.6-193.1-63.9zm207.6-339.2c-71.9-16.9-132.7-3.6-183.2 37.4-50.8 41.2-88.2 106.6-116.3 197.7-6.9 22.3-13.9 44.5-21.2 66.7-77.2-25.4-154.3-50.8-231.5-76.2-16 48.7-32.9 97.1-50.8 145.3 214.1 79.7 428 159.9 641.8 240.4 31.7-85.2 60.8-171.2 87.3-257.8 30.2-98.7 32.8-179.5 11-239.6-21.8-60.3-68.1-97.8-137.1-113.9m-372.7-650.9c-12.1 137.5-31.4 274.4-58 410.1 224.1 44.2 448.2 88.7 672.2 133.6 31.3-159.5 54.1-320.3 68.4-481.7-39.6-3.7-79.1-7.3-118.6-11-8.8 99.4-20.9 198.6-36.3 297.3-49.5-8-99.1-15.8-148.6-23.7 13.9-88.8 24.9-177.9 33.2-267.2l-118.5-11.4c-8.1 86.9-18.8 173.6-32.3 259.9-58.2-9.2-116.4-18.4-174.6-27.5 13.9-88.9 24.8-178.2 32.7-267.7-39.9-3.6-79.7-7.2-119.6-10.7m396.1-297c.2-18 .2-36 .2-54-.1-52.8 6.6-91.9 21.2-117.6 14.6-25.7 38.2-39.3 71-40.5 32.4-1.1 56.1 11.4 70.6 37.7 14.5 26.4 22.4 67.9 22.4 124.1 0 17.7-.1 35.3-.3 52.9-61.7-.9-123.4-1.8-185.1-2.6zm-118.2-1.6c-87.6-1.2-175.3-2.3-262.9-3.3-.6 50.8-2.1 101.6-4.7 152.3 228.2 11.6 456.3 23.6 684.5 35.9 4.1-81.9 6-163.9 5.7-245.9-.4-114.8-21.6-199.4-58.5-251.8-37.1-52.7-90.8-75.5-159.6-70.4-40.2 3-74.9 18.6-104.5 46.1-29.7 27.5-52 64.6-67.9 111.1-159-109.9-265.2-170.2-313-199 5.5 56.2 9.7 112.6 12.7 168.9 90.5 52.6 180.1 109.1 268.3 169.5.3 28.9.3 57.7-.1 86.6m-69.4-922.4c155.5 20.9 243.5 36.9 263.8 39.9 20.3 3.3 36.3 5.5 47.9 6.4-37.1 19.3-127.6 72.8-274.6 152.4-10.7-66.4-23.1-132.7-37.1-198.7zm-298.4-28.3c56.9 4.6 114 10 171 16.1 19.9 89.5 36.7 179.5 50.4 269.8-51 26.1-102.2 51.5-153.7 76.2 7.6 54.4 14 109 19.2 163.6 220.2-106.2 436.3-226.6 647-361-11.8-72.4-25.2-144.5-40.4-216.5-245.4-51.7-490.9-87.9-735-108.8 15 53.3 28.8 106.9 41.5 160.6m-159.5-514.9c18.7 48.4 36.4 97 53.1 145.8 178.1-60.6 356.3-121 534.6-181.2 24.4 71.6 47 143.6 67.7 215.9 38.8-10.9 77.6-21.9 116.4-32.8-59.1-206.7-133-410.3-221.6-609.2-36.9 16.2-73.8 32.5-110.7 48.8 31 69.6 60.2 139.9 87.6 210.7-175.8 67.1-351.5 134.4-527.1 202m-331.3-663.4c76.3 122.5 145.2 248 206.9 376 206-98.7 412.2-197.1 618.5-295.1-72.2-150.3-153-297.6-242.5-441.3-33.8 20.8-67.6 41.6-101.3 62.4 55 88.5 106.8 178.4 155.1 269.5-44.4 23.3-88.8 46.7-133.2 70.1-43.5-82-89.8-162.9-138.9-242.7-33.9 20.7-67.8 41.4-101.6 62.2 47.8 77.5 92.9 156.2 135.2 236-52.1 27.4-104.2 54.9-156.3 82.5-43.6-82.1-90.3-163.1-139.9-242.9l-102 63.3m-17146-2785.2c-57.9 12.7-115.5 26.7-172.9 41.9 48.2 181.8 96.4 363.7 144.6 545.5-63.5 16.9-126.7 35.5-189.4 55.9 12.4 38.3 24.9 76.7 37.3 115 168.7-54.8 340.5-96.3 513.9-124.6l-19.5-119.4c-64.5 10.5-128.8 22.8-192.8 36.9-40.4-183.7-80.8-367.5-121.2-551.2m829.1-96.5c-160 2.5-319.8 14.1-478.8 35l89.4 679.5c132.8-17.4 266.3-27.2 399.8-29.2l-1.8-119.1c-87.3 1.4-174.5 5.9-261.6 13.6-4.4-50-8.8-100-13.2-149.9 84.3-7.5 168.9-12.1 253.5-13.8-.8-39.7-1.6-79.4-2.4-119-87.3 1.7-174.6 6.5-261.6 14.2l-15.6-176.1c97.9-8.6 196-13.7 294.1-15.2l-1.8-120m636.6 231.4c9-61.1-9.9-113.4-58.7-155.5-48.7-42-122.3-68.3-218.9-75.3-89-6.3-168.7 4.7-236.9 31.2-.7 45-1.3 90-2 135 54.3-19.8 101-32.6 139.1-39.2 38.2-6.6 73.1-8.6 104.5-6.3 37.7 2.8 66 11.5 84.9 25.6 18.8 14.1 26.8 33.1 24.3 57.1-1.3 13.3-6.9 24.7-16.6 34.3-9.6 9.6-23.2 18.4-40.6 26.5-17.4 8.2-52.5 20.5-104.3 38.5-48.5 16.6-84.4 34-108.4 51.3-23.9 17.2-42.9 37.9-57.2 61.6-14.2 23.8-21.3 51.8-21.9 84-.9 60.7 20 108.5 61 144.6 41.1 36.1 97.3 56.1 170.5 62.2 36 3.1 70.6 2.3 104.3-2.3s69.4-12 107.6-21.9c-10.5-39.6-21.6-79.2-33.1-118.7-40.5 9.9-73.3 16.8-98.9 20.1-25.6 3.3-50.4 3.9-74.6 1.9-28.7-2.4-50.3-10.3-64.9-24.1-14.6-13.8-21.5-30.9-20.3-51.4.7-12.9 4.5-23.8 11.5-32.9 7-9.2 17.8-17.7 32.5-25.7 14.6-7.8 49-21.6 104.3-39.5 73.2-23.7 125.9-47.7 156.6-74.6 30.7-26.9 49.7-62.2 56.2-106.5m492.5-93c-57.4-15.2-115.1-29.2-172.9-41.9-40.4 183.7-80.8 367.5-121.2 551.2-64-14.1-128.4-26.4-192.9-36.9l-19.5 119.4c173.5 28.3 345.3 69.8 513.9 124.6 12.5-38.3 24.9-76.7 37.4-115-62.8-20.4-126-39-189.5-55.9 48.2-181.8 96.4-363.7 144.7-545.5m-5094.08 3538.5 163.98 70.8c-13.65 31.6-26.78 63.4-39.4 95.3-15.96 40.4-34.17 67.8-55.66 82.1-21.46 14.4-47.03 16.6-76.83 6.1-53.53-18.6-65.88-72-31.63-158.9 12.69-31.9 25.87-63.7 39.54-95.4zm-105.87-45.7a3713.49 3713.49 0 0 0-38.38 92.4c-17.27 43.3-34.66 72.7-53.36 88.2-18.64 15.5-41.13 18.6-67.64 9.2-24.71-8.8-38.58-26.1-41.16-52.2-2.57-26 5.18-63.2 24.32-110.8 11.74-29.2 23.85-58.2 36.35-87.2 46.62 20.2 93.25 40.3 139.87 60.4zm-171.37-276.5c-40.16 81.9-77.25 165-111.29 248.9-46.45 114.8-61.99 204.5-52.85 265.3 9.25 60.9 43.85 99.5 101.52 116.9 39.21 11.8 74.65 10.5 106.42-3.2 31.81-13.7 55.88-37 72.87-70.4l4.44 1.5c-7.11 50.9-.56 90.9 18.37 119.6 18.96 28.8 49.83 49.1 92.06 61.7 59.99 17.7 113.49 7.9 161.37-26.9 48-34.9 84.86-89.4 114.24-165 32.46-83.4 68.56-165.8 108.3-246.9l-615.45-301.5m-387.46 1459.1 442.56 28.2c50.53 3.2 95.56-6.4 135.36-27.7 39.81-21.2 71.7-52.9 96.6-94.9 24.92-42.1 41.37-92.3 50.67-151.7 14.06-89.6 6.38-162.6-26.4-222.8-32.69-60.1-85.82-101-161.95-120.2l-428.32-107.4c-14.79 59-28.18 118.3-40.15 177.8l411.3 82.8c51.78 10.4 87.4 29.6 107.33 56.8 19.97 27.2 25.23 66.3 17.16 118.1-7.76 50.1-24.64 84.9-52.12 104.9-27.42 19.9-67.43 27.4-120.25 21.6-138.68-15.4-277.37-30.8-416.05-46.1-6.66 60.1-11.91 120.3-15.74 180.6m677.65 216.3c-228.44-2.1-456.87-4.3-685.31-6.4-.56 60.6.29 121.2 2.56 181.7 228.29-8.5 456.57-17.1 684.86-25.7-1.87-49.8-2.58-99.7-2.11-149.6m13.71 327c-227.45 21.3-454.91 42.5-682.36 63.8 5.64 60.4 12.7 120.7 21.19 180.8 186.6-26.3 373.19-52.6 559.79-79a3306.99 3306.99 0 0 0 54.9 293.1c38.95-9.1 77.89-18.3 116.84-27.4a3190.17 3190.17 0 0 1-70.36-431.3m-72.29 1098.6c-134.25 58.9-236.14 14.8-290.67-136.8-10.63-29.8-20.87-59.8-30.71-89.9 141.37-46.3 282.74-92.5 424.12-138.8 6.99 21.3 14.21 42.7 21.65 63.9 50.26 141.9 13.84 241.1-124.39 301.6zm70.22 161.8c101.34-49.8 162.24-120.7 188.32-208.6 26.14-88.2 15.78-188.4-25.54-307.8-22.04-63.9-41.98-128.2-59.84-193l-660.69 182.1c24.05 87.3 51.21 173.9 81.49 259.7 47.37 134 118.91 225.4 204.47 271.4 85.9 46.2 176.86 42.9 271.79-3.8" style="fill:#fff;fill-opacity:1;fill-rule:nonzero;stroke:none" transform="matrix(.13333 0 0 -.13333 0 3282.053)"/><path d="M12857.5 16524.7c0 364.2-160.8 546.3-482.5 546.3h-191.3v-1104.1h154.2c346.4 0 519.6 186 519.6 557.8zm373.4 9.3c0-279.1-79.4-492.8-238.3-641.3-158.9-148.4-388.3-222.7-688.3-222.7h-480.1v1695.6h532.3c276.8 0 491.7-73.1 644.8-219.2 153.1-146.2 229.6-350.3 229.6-612.4m1327.9-864h-976.5v1695.6h976.5V17071h-617v-372.3h574.1v-294.6h-574.1v-437.2h617V15670m1320.9 1695.6h363l-576.4-1695.6h-391.9l-575.3 1695.6h363l318.9-1009c17.8-59.6 36.2-128.9 55.1-208.2 19-79.2 30.8-134.3 35.4-165.2 8.5 71.1 37.5 195.6 87 373.4l321.2 1009m8514.5-845.5c0-189.4 35.9-332.1 107.9-427.9 71.9-95.9 179.3-143.8 322.4-143.8 286.8 0 430.2 190.5 430.2 571.7 0 381.9-142.6 572.9-427.9 572.9-143.1 0-250.9-48.1-323.6-144.4-72.7-96.2-109-239.1-109-428.5zm1237.4 0c0-280.6-69.6-496.4-208.7-647.1-139.2-150.8-338.7-226.2-598.4-226.2-259.8 0-459.3 75.4-598.5 226.2-139.1 150.7-208.7 367.2-208.7 649.4s69.8 497.7 209.3 646.6c139.6 148.8 339.6 223.2 600.2 223.2 260.5 0 459.8-75 597.8-225 138-150 207-365.7 207-647.1m710.9 47.6h118.3c110.6 0 193.3 21.8 248.2 65.5 54.9 43.7 82.3 107.3 82.3 190.8 0 84.2-23 146.5-69 186.7-46 40.2-118.1 60.3-216.2 60.3h-163.6zm811.8 269c0-182.5-57-322-171-418.6-114.1-96.7-276.2-145-486.5-145h-154.3V15670H25983v1695.6h541.6c205.7 0 362-44.3 469.1-132.8 107.1-88.6 160.6-220.6 160.6-396.1m1321-695.8c0-153.1-55.1-273.7-165.3-361.9-110.2-88.1-263.5-132.2-459.8-132.2-181 0-341 34.1-480.2 102.1v334c114.5-51 211.3-87 290.6-107.9 79.2-20.8 151.7-31.3 217.4-31.3 78.9 0 139.4 15.1 181.5 45.2 42.1 30.2 63.2 75 63.2 134.6 0 33.2-9.3 62.8-27.8 88.7-18.6 25.9-45.8 50.8-81.8 74.8-35.9 24-109.2 62.2-219.8 114.8-103.6 48.7-181.3 95.5-233.1 140.3-51.8 44.9-93.1 97.1-124 156.6-31 59.5-46.4 129.1-46.4 208.8 0 149.9 50.8 267.9 152.5 353.7 101.6 85.8 242.1 128.7 421.5 128.7 88.2 0 172.2-10.4 252.3-31.3 80-20.9 163.7-50.3 251-88.2l-115.9-279.4c-90.5 37.1-165.3 63-224.4 77.7-59.2 14.6-117.4 22-174.6 22-68 0-120.2-15.9-156.5-47.6-36.4-31.7-54.5-73-54.5-124 0-31.8 7.3-59.4 22-83s38.1-46.4 70.1-68.4c32.1-22 108.1-61.7 227.9-118.9 158.5-75.7 267.2-151.7 325.9-227.9 58.8-76.1 88.2-169.5 88.2-280" style="fill:#494a4b;fill-opacity:1;fill-rule:nonzero;stroke:none" transform="matrix(.13333 0 0 -.13333 0 3282.053)"/></svg>
